#VRML V2.0 utf8
# 3D model generated by kicad-lcsc-manager
# Based on easyeda2kicad.py v1.0.1

Shape{
    appearance Appearance {
        material  Material {
            diffuseColor 1.0 1.0 1.0
            specularColor 0.5019607843137255 0.5019607843137255 0.5019607843137255
            ambientIntensity 1.0
            transparency 0.0
            shininess 0.5
        }
    }
    geometry IndexedFaceSet {
        ccw TRUE
        solid FALSE
        coord DEF co Coordinate {
            point [
                -0.0788 0.246 0.2359, -0.0791 0.246 0.2325, -0.0798 0.246 0.2446, -0.0202 0.246 0.0039, -0.0362 0.246 0.0039, -0.0362 0.246 0.0879, -0.0608 0.246 0.1796, -0.0599 0.246 0.178, -0.0798 0.246 0.178, -0.0362 0.246 0.2443, -0.0362 0.246 0.2446, -0.0351 0.246 0.2446, -0.0089 0.246 0.2447, -0.0089 0.246 0.2446, -0.0188 0.246 0.2446, 0.0702 0.246 0.1829, 0.0708 0.246 0.182, 0.0044 0.246 0.182, 0.2419 0.246 0.1125, 0.2467 0.246 0.1091, 0.0949 0.246 0.1743, 0.123 0.246 0.2129, 0.1229 0.246 0.2133, 0.2269 0.246 0.2133, 0.0246 0.246 0.226, 0.0201 0.246 0.2219, 0.0044 0.246 0.2446, 0.0044 0.246 0.2202, 0.0476 0.246 0.2478, 0.043 0.246 0.2446, 0.0401 0.246 0.2426, 0.0345 0.246 0.2361, 0.0309 0.246 0.2291, 0.0296 0.246 0.2286, 0.0562 0.246 0.2509, 0.0044 0.246 0.3346, 0.0796 0.246 0.2477, 0.0717 0.246 0.2507, 0.1946 0.246 0.3346, 0.0632 0.246 0.2517, 0.2241 0.246 0.2446, 0.0844 0.246 0.2446, 0.2181 0.246 0.3131, 0.0838 0.246 0.2452, 0.2169 0.246 0.3188, 0.2004 0.246 0.3339, 0.2058 0.246 0.3318, 0.2106 0.246 0.3284, 0.2143 0.246 0.324, 0.1149 0.246 0.23, 0.1138 0.246 0.2311, 0.1084 0.246 0.2349, 0.102 0.246 0.2373, 0.0952 0.246 0.2381, 0.0878 0.246 0.2418, 0.0933 0.246 0.238, 0.0913 0.246 0.2377, 0.2263 0.246 0.2202, 0.1215 0.246 0.2196, 0.1212 0.246 0.2202, 0.1185 0.246 0.2256, 0.1025 0.246 0.1836, 0.1047 0.246 0.1843, 0.2296 0.246 0.182, 0.1108 0.246 0.1874, 0.1161 0.246 0.1919, 0.1199 0.246 0.1975, 0.1223 0.246 0.2039, 0.1231 0.246 0.2106, 0.0784 0.246 0.1738, 0.0822 0.246 0.1724, 0.0044 0.246 0.0879, 0.2579 0.246 0.1063, 0.3937 0.246 0.1063, 0.3937 0.246 0.0879, 0.2521 0.246 0.107, 0.0983 0.246 0.1768, 0.0992 0.246 0.178, 0.23 0.246 0.178, 0.1008 0.246 0.18, 0.1017 0.246 0.182, 0.2343 0.246 0.1279, 0.2356 0.246 0.1222, 0.2381 0.246 0.1169, 0.0863 0.246 0.1719, 0.087 0.246 0.1719, 0.091 0.246 0.1726, 0.0044 0.246 0.178, 0.0723 0.246 0.1791, 0.0733 0.246 0.178, 0.075 0.246 0.1762, 0.0733 0.246 0.2003, 0.0503 0.246 0.2121, 0.0763 0.246 0.2031, 0.0799 0.246 0.2051, 0.0257 0.246 0.1862, 0.031 0.246 0.1838, 0.0248 0.246 0.208, 0.0256 0.246 0.2113, 0.0267 0.246 0.2133, 0.112 0.246 0.2133, 0.0481 0.246 0.1834, 0.0492 0.246 0.1841, 0.0499 0.246 0.1848, 0.0493 0.246 0.1922, 0.0482 0.246 0.1929, 0.0451 0.246 0.2031, 0.0471 0.246 0.1934, 0.111 0.246 0.2041, 0.109 0.246 0.2006, 0.1003 0.246 0.1988, 0.1059 0.246 0.1974, 0.1022 0.246 0.1951, 0.0939 0.246 0.2044, 0.0974 0.246 0.202, 0.1123 0.246 0.2109, 0.1122 0.246 0.2083, 0.0175 0.246 0.1946, 0.0206 0.246 0.1904, 0.0212 0.246 0.1898, 0.0901 0.246 0.2058, 0.0861 0.246 0.2062, 0.084 0.246 0.2061, 0.0148 0.246 0.2117, 0.0142 0.246 0.2066, 0.0044 0.246 0.2133, 0.0142 0.246 0.2056, 0.0152 0.246 0.2, 0.0362 0.246 0.1828, 0.0463 0.246 0.1829, 0.0469 0.246 0.183, 0.0512 0.246 0.1882, 0.0512 0.246 0.1888, 0.0691 0.246 0.1906, 0.0509 0.246 0.1901, 0.0502 0.246 0.1913, 0.0459 0.246 0.1935, 0.0457 0.246 0.1935, 0.0452 0.246 0.1934, 0.0506 0.246 0.1859, 0.0511 0.246 0.1871, 0.0692 0.246 0.1871, 0.0691 0.246 0.1889, 0.0283 0.246 0.1975, 0.0264 0.246 0.2001, 0.0252 0.246 0.2032, 0.0248 0.246 0.2065, 0.0448 0.246 0.1933, 0.0372 0.246 0.1933, 0.0341 0.246 0.1938, 0.0311 0.246 0.1952, 0.0285 0.246 0.1972, 0.0394 0.246 0.2202, 0.1093 0.246 0.2202, 0.0394 0.246 0.2199, 0.1103 0.246 0.2188, 0.1118 0.246 0.215, 0.038 0.246 0.2199, 0.0272 0.246 0.2142, 0.0291 0.246 0.2165, 0.0318 0.246 0.2183, 0.0348 0.246 0.2195, 0.0874 0.246 0.2259, 0.0861 0.246 0.2252, 0.0838 0.246 0.2301, 0.0399 0.246 0.2229, 0.0421 0.246 0.2287, 0.0455 0.246 0.2336, 0.0525 0.246 0.2389, 0.0579 0.246 0.2408, 0.0477 0.246 0.2356, 0.0631 0.246 0.2414, 0.0641 0.246 0.2414, 0.0698 0.246 0.2406, 0.0912 0.246 0.2273, 0.0952 0.246 0.2278, 0.0969 0.246 0.2278, 0.0754 0.246 0.2383, 0.0801 0.246 0.2347, 0.1011 0.246 0.2268, 0.1049 0.246 0.2248, 0.1079 0.246 0.2222, 0.0189 0.246 0.2202, 0.0167 0.246 0.217, 0.0154 0.246 0.2133, -0.1096 0.246 0.2133, -0.1195 0.246 0.2058, -0.1228 0.246 0.2058, -0.1102 0.246 0.182, -0.1096 0.246 0.182, -0.1102 0.246 0.1819, -0.1096 0.246 0.178, -0.1136 0.246 0.1819, -0.1284 0.246 0.1818, -0.1283 0.246 0.182, -0.1137 0.246 0.182, -0.126 0.246 0.1883, -0.116 0.246 0.1884, -0.0836 0.246 0.1956, -0.0836 0.246 0.1929, -0.087 0.246 0.182, -0.0798 0.246 0.2061, -0.0844 0.246 0.2061, -0.087 0.246 0.2133, -0.0844 0.246 0.2033, -0.0798 0.246 0.1929, -0.075 0.246 0.193, -0.0798 0.246 0.1848, -0.075 0.246 0.1849, -0.0798 0.246 0.2034, -0.0751 0.246 0.2034, -0.0798 0.246 0.1957, -0.075 0.246 0.1957, -0.06 0.246 0.1865, -0.0604 0.246 0.1851, -0.0605 0.246 0.1851, -0.0848 0.246 0.1848, -0.0848 0.246 0.1821, -0.0798 0.246 0.182, -0.0798 0.246 0.1821, -0.0718 0.246 0.1822, -0.0687 0.246 0.1993, -0.0572 0.246 0.2133, -0.0656 0.246 0.1994, -0.0572 0.246 0.1947, -0.0608 0.246 0.1865, -0.0606 0.246 0.1857, -0.0405 0.246 0.1824, -0.039 0.246 0.183, -0.0362 0.246 0.182, -0.039 0.246 0.1861, -0.0362 0.246 0.2133, -0.0396 0.246 0.1969, -0.0401 0.246 0.1977, -0.0405 0.246 0.2133, -0.0405 0.246 0.1852, -0.0405 0.246 0.1916, -0.0401 0.246 0.1854, -0.0404 0.246 0.1917, -0.0399 0.246 0.1922, -0.0396 0.246 0.1928, -0.0392 0.246 0.1937, -0.0391 0.246 0.1949, -0.0392 0.246 0.1959, -0.0437 0.246 0.182, -0.0436 0.246 0.1819, -0.0405 0.246 0.178, -0.0436 0.246 0.182, -0.0405 0.246 0.182, -0.0411 0.246 0.1822, -0.0499 0.246 0.1991, -0.0498 0.246 0.1962, -0.0514 0.246 0.182, -0.0501 0.246 0.1849, -0.0496 0.246 0.1841, -0.0405 0.246 0.1981, -0.041 0.246 0.1986, -0.0418 0.246 0.199, -0.0505 0.246 0.1858, -0.0434 0.246 0.1996, -0.0458 0.246 0.1999, -0.0514 0.246 0.2133, -0.0479 0.246 0.1997, -0.0486 0.246 0.1833, -0.048 0.246 0.1829, -0.0464 0.246 0.1823, -0.0496 0.246 0.1898, -0.0501 0.246 0.189, -0.0505 0.246 0.1882, -0.0506 0.246 0.187, -0.0455 0.246 0.1974, -0.0446 0.246 0.1974, -0.0422 0.246 0.1952, -0.0438 0.246 0.1972, -0.0431 0.246 0.1968, -0.0422 0.246 0.1948, -0.0423 0.246 0.1943, -0.0426 0.246 0.1939, -0.0428 0.246 0.1936, -0.0439 0.246 0.1929, -0.0476 0.246 0.1972, -0.0458 0.246 0.1921, -0.0493 0.246 0.1965, -0.0469 0.246 0.1916, -0.0489 0.246 0.1905, -0.0427 0.246 0.1964, -0.0424 0.246 0.196, -0.0423 0.246 0.1956, -0.042 0.246 0.1847, -0.0436 0.246 0.1899, -0.0418 0.246 0.1907, -0.044 0.246 0.1844, -0.0441 0.246 0.1844, -0.0456 0.246 0.1891, -0.0456 0.246 0.1846, -0.0475 0.246 0.1867, -0.0475 0.246 0.1871, -0.0464 0.246 0.1848, -0.0467 0.246 0.185, -0.047 0.246 0.1853, -0.0473 0.246 0.1857, -0.0475 0.246 0.1861, -0.0474 0.246 0.1875, -0.0471 0.246 0.1879, -0.0468 0.246 0.1883, -0.087 0.246 0.2446, -0.0897 0.246 0.2442, -0.093 0.246 0.2441, -0.0804 0.246 0.2202, -0.0804 0.246 0.2202, -0.0798 0.246 0.2202, -0.087 0.246 0.2373, -0.0838 0.246 0.2202, -0.0838 0.246 0.2202, -0.0798 0.246 0.2133, -0.072 0.246 0.2062, -0.087 0.246 0.2202, -0.087 0.246 0.2267, -0.0862 0.246 0.2267, -0.0962 0.246 0.2267, -0.0985 0.246 0.2202, -0.0986 0.246 0.2201, -0.102 0.246 0.22, -0.1019 0.246 0.2202, -0.1096 0.246 0.2202, -0.1096 0.246 0.2446, -0.0538 0.246 0.2312, -0.0572 0.246 0.2202, -0.0538 0.246 0.234, -0.0572 0.246 0.2446, -0.0514 0.246 0.2446, -0.0546 0.246 0.2444, -0.0546 0.246 0.2416, -0.0514 0.246 0.234, -0.0514 0.246 0.2312, -0.0452 0.246 0.2313, -0.0514 0.246 0.2231, -0.0452 0.246 0.2232, -0.0514 0.246 0.2417, -0.0453 0.246 0.2417, -0.0452 0.246 0.234, -0.042 0.246 0.2205, -0.0405 0.246 0.2202, -0.0514 0.246 0.2202, -0.055 0.246 0.2231, -0.055 0.246 0.2204, -0.0514 0.246 0.2204, -0.0405 0.246 0.2446, -0.0422 0.246 0.2445, -0.0514 0.246 0.2444, -0.0087 0.246 0.2234, -0.0183 0.246 0.2234, -0.0188 0.246 0.2202, -0.0183 0.246 0.2206, -0.0056 0.246 0.2207, -0.0058 0.246 0.2446, -0.0058 0.246 0.2448, -0.0188 0.246 0.3346, -0.2579 0.246 0.1063, -0.2521 0.246 0.107, -0.2628 0.246 0.0879, -0.2419 0.246 0.1125, -0.2381 0.246 0.1169, -0.1096 0.246 0.0879, -0.2467 0.246 0.1091, -0.23 0.246 0.178, -0.2343 0.246 0.1279, -0.2356 0.246 0.1222, -0.3937 0.246 0.0879, -0.3937 0.246 0.1063, -0.2628 0.246 0.1063, -0.2004 0.246 0.3339, -0.1946 0.246 0.3346, -0.2181 0.246 0.3131, -0.1096 0.246 0.3346, -0.2241 0.246 0.2446, -0.2169 0.246 0.3188, -0.2143 0.246 0.324, -0.2106 0.246 0.3284, -0.2058 0.246 0.3318, -0.0374 0.246 0.2439, -0.0374 0.246 0.2407, -0.0322 0.246 0.2229, -0.0349 0.246 0.2234, -0.0362 0.246 0.2412, -0.0362 0.246 0.224, -0.0371 0.246 0.2409, -0.0373 0.246 0.2245, -0.0237 0.246 0.2271, -0.0249 0.246 0.2255, -0.0254 0.246 0.225, -0.0269 0.246 0.2239, -0.0252 0.246 0.2396, -0.0238 0.246 0.2378, -0.0268 0.246 0.2409, -0.0287 0.246 0.2418, -0.0347 0.246 0.2418, -0.0317 0.246 0.2422, -0.0226 0.246 0.2315, -0.0308 0.246 0.2421, -0.0226 0.246 0.2324, -0.023 0.246 0.2357, -0.0286 0.246 0.2232, -0.031 0.246 0.2229, -0.023 0.246 0.2291, -0.0287 0.246 0.2446, -0.0317 0.246 0.245, -0.0202 0.246 0.3346, -0.0362 0.246 0.3346, -0.0318 0.246 0.245, -0.0349 0.246 0.2447, -0.0202 0.246 0.2446, -0.0211 0.246 0.2392, -0.0229 0.246 0.2415, -0.0234 0.246 0.242, -0.0257 0.246 0.2436, -0.0282 0.246 0.2446, -0.0199 0.246 0.2366, -0.0202 0.246 0.2372, -0.0202 0.246 0.2271, -0.0197 0.246 0.2286, -0.0193 0.246 0.2322, -0.0194 0.246 0.2334, -0.0202 0.246 0.2202, -0.0294 0.246 0.2202, -0.0291 0.246 0.2202, -0.0265 0.246 0.2208, -0.0243 0.246 0.2219, -0.0223 0.246 0.2235, -0.022 0.246 0.2239, -0.0206 0.246 0.226, -0.0202 0.246 0.2133, -0.0306 0.246 0.2201, -0.0313 0.246 0.2202, -0.0372 0.246 0.2215, -0.0368 0.246 0.2213, -0.0362 0.246 0.2202, -0.0362 0.246 0.2211, -0.0342 0.246 0.2205, -0.0572 0.246 0.182, -0.0572 0.246 0.1865, -0.0523 0.246 0.1994, -0.0556 0.246 0.1994, -0.0589 0.246 0.1823, -0.0587 0.246 0.182, -0.0575 0.246 0.1792, -0.0572 0.246 0.1787, -0.0569 0.246 0.178, -0.0568 0.246 0.178, -0.0514 0.246 0.178, -0.0563 0.246 0.1774, -0.0527 0.246 0.1771, -0.0527 0.246 0.1745, -0.0514 0.246 0.0879, -0.0572 0.246 0.0879, -0.0572 0.246 0.1749, -0.0571 0.246 0.1748, -0.0533 0.246 0.1769, -0.0544 0.246 0.1768, -0.0547 0.246 0.1768, -0.0554 0.246 0.1769, -0.056 0.246 0.1772, -0.0559 0.246 0.1743, -0.0546 0.246 0.1742, -0.0539 0.246 0.1742, -0.0594 0.246 0.1769, -0.0583 0.246 0.1756, -0.0798 0.246 0.0879, -0.0581 0.246 0.1755, -0.0617 0.246 0.182, 0.3937 0.246 0.0039, 0.0044 0.246 0.0039, -0.087 0.246 0.0039, -0.087 0.246 0.0879, -0.0798 0.246 0.0039, -0.0572 0.246 0.0039, -0.0514 0.246 0.0039, -0.3937 0.246 0.0039, -0.2628 0.246 0.0039, -0.1096 0.246 0.0039, -0.0405 0.246 0.0879, -0.0405 0.246 0.0039, -0.087 0.246 0.178, -0.0362 0.246 0.178, -0.0085 0.246 0.1934, -0.0084 0.246 0.1853, -0.0171 0.246 0.1934, -0.0183 0.246 0.1853, -0.0171 0.246 0.1961, -0.0055 0.246 0.2066, -0.0053 0.246 0.1826, -0.0188 0.246 0.182, -0.0188 0.246 0.178, -0.0188 0.246 0.0879, -0.0188 0.246 0.0039, -0.0188 0.246 0.2133, -0.0179 0.246 0.2066, -0.0179 0.246 0.2038, -0.0086 0.246 0.2039, -0.0085 0.246 0.1962, -0.0182 0.246 0.1825, -0.0224 0.246 0.1907, -0.0229 0.246 0.1955, -0.0218 0.246 0.1898, -0.0214 0.246 0.1888, -0.0304 0.246 0.1833, -0.0292 0.246 0.1826, -0.0319 0.246 0.1824, -0.0247 0.246 0.1823, -0.0236 0.246 0.1828, -0.0202 0.246 0.182, -0.0216 0.246 0.1847, -0.0213 0.246 0.1858, -0.0319 0.246 0.1851, -0.0318 0.246 0.1851, -0.0313 0.246 0.1843, -0.0233 0.246 0.1915, -0.0246 0.246 0.1921, -0.025 0.246 0.1968, -0.0269 0.246 0.1927, -0.0296 0.246 0.1974, -0.0285 0.246 0.1976, -0.0269 0.246 0.1974, -0.0261 0.246 0.1821, -0.0337 0.246 0.1981, -0.0343 0.246 0.1971, -0.0226 0.246 0.1834, -0.0223 0.246 0.1838, -0.0306 0.246 0.1998, -0.0319 0.246 0.1994, -0.0329 0.246 0.1989, -0.028 0.246 0.1822, -0.0266 0.246 0.1821, -0.032 0.246 0.1933, -0.0319 0.246 0.1946, -0.0316 0.246 0.1957, -0.0312 0.246 0.1964, -0.0348 0.246 0.1958, -0.035 0.246 0.1935, -0.0349 0.246 0.1824, -0.0202 0.246 0.0879, -0.0202 0.246 0.178, -0.0212 0.246 0.1871, -0.0212 0.246 0.1875, -0.0229 0.246 0.1985, -0.0235 0.246 0.1988, -0.0258 0.246 0.1997, -0.0288 0.246 0.2, -0.0308 0.246 0.1968, -0.0303 0.246 0.1972, -0.0893 0.246 0.182, -0.1083 0.246 0.1899, -0.1071 0.246 0.1874, -0.1053 0.246 0.1853, -0.1077 0.246 0.1998, -0.1086 0.246 0.1976, -0.109 0.246 0.1942, -0.1089 0.246 0.1927, -0.1028 0.246 0.1835, -0.1 0.246 0.1825, -0.0959 0.246 0.182, -0.0895 0.246 0.2061, -0.0963 0.246 0.206, -0.1 0.246 0.2056, -0.1029 0.246 0.2045, -0.1054 0.246 0.2028, -0.1062 0.246 0.2019, -0.0779 0.246 0.2382, -0.0791 0.246 0.231, -0.0785 0.246 0.2282, -0.0665 0.246 0.2443, -0.0702 0.246 0.2439, -0.0731 0.246 0.2428, -0.0773 0.246 0.2257, -0.0755 0.246 0.2236, -0.073 0.246 0.2218, -0.0702 0.246 0.2208, -0.0661 0.246 0.2203, -0.0595 0.246 0.2203, -0.0597 0.246 0.2444, -0.0756 0.246 0.2411, -0.0764 0.246 0.2403, -0.1318 0.246 0.1817, -0.1317 0.246 0.182, -0.2296 0.246 0.182, -0.2269 0.246 0.2133, -0.2263 0.246 0.2202, -0.087 0.246 0.3346, -0.0798 0.246 0.3346, -0.0572 0.246 0.3346, -0.0514 0.246 0.3346, -0.0405 0.246 0.3346
            ]
        }
        coordIndex [
            0,1,2,-1,3,4,5,-1,6,7,8,-1,9,10,11,-1,12,13,14,-1,15,16,17,-1,18,19,20,-1,21,22,23,-1,24,25,26,-1,26,25,27,-1,28,29,26,-1,26,29,30,-1,26,30,31,-1,31,32,26,-1,26,32,33,-1,26,33,24,-1,34,28,35,-1,36,37,38,-1,38,37,35,-1,35,37,39,-1,35,39,34,-1,40,41,42,-1,42,41,43,-1,42,43,44,-1,36,38,43,-1,43,38,45,-1,43,45,46,-1,46,47,43,-1,43,47,48,-1,43,48,44,-1,49,50,40,-1,50,51,40,-1,40,51,52,-1,40,52,41,-1,41,52,53,-1,41,53,54,-1,54,53,55,-1,54,55,56,-1,23,22,57,-1,22,58,57,-1,57,58,59,-1,57,59,40,-1,40,59,60,-1,40,60,49,-1,61,62,63,-1,63,62,64,-1,63,64,65,-1,65,66,63,-1,63,66,67,-1,63,67,23,-1,23,67,68,-1,23,68,21,-1,69,70,71,-1,72,73,74,-1,71,75,72,-1,76,77,78,-1,78,77,79,-1,78,79,63,-1,63,79,80,-1,63,80,61,-1,78,81,76,-1,76,81,82,-1,76,82,20,-1,20,82,83,-1,20,83,18,-1,75,71,19,-1,70,84,71,-1,71,84,85,-1,71,85,19,-1,19,85,86,-1,19,86,20,-1,17,16,87,-1,16,88,87,-1,87,88,89,-1,87,89,71,-1,71,89,90,-1,71,90,69,-1,91,92,93,-1,93,92,94,-1,17,95,96,-1,97,98,92,-1,92,98,99,-1,92,99,100,-1,101,102,15,-1,15,102,103,-1,104,105,106,-1,106,105,107,-1,108,109,110,-1,110,109,111,-1,110,111,112,-1,113,100,114,-1,114,100,115,-1,114,115,110,-1,110,115,116,-1,110,116,108,-1,117,118,17,-1,17,118,119,-1,17,119,95,-1,113,120,100,-1,100,120,121,-1,100,121,92,-1,92,121,122,-1,92,122,94,-1,123,124,125,-1,125,124,126,-1,125,126,17,-1,17,126,127,-1,17,127,117,-1,96,128,17,-1,17,128,129,-1,17,129,15,-1,15,129,130,-1,15,130,101,-1,131,132,133,-1,133,132,134,-1,133,134,106,-1,106,134,135,-1,106,135,104,-1,107,136,106,-1,106,136,137,-1,106,137,138,-1,103,139,15,-1,15,139,140,-1,15,140,141,-1,141,140,131,-1,141,131,142,-1,142,131,133,-1,143,144,106,-1,106,144,145,-1,106,145,92,-1,92,145,146,-1,92,146,97,-1,138,147,106,-1,106,147,148,-1,106,148,149,-1,149,150,106,-1,106,150,151,-1,106,151,143,-1,152,153,154,-1,154,153,155,-1,154,155,156,-1,156,100,154,-1,154,100,99,-1,154,99,157,-1,157,99,158,-1,158,159,157,-1,157,159,160,-1,157,160,161,-1,162,153,163,-1,163,153,152,-1,163,152,164,-1,165,166,167,-1,168,169,152,-1,165,167,152,-1,152,167,170,-1,152,170,168,-1,169,171,152,-1,152,171,172,-1,152,172,173,-1,162,174,153,-1,153,174,175,-1,153,175,176,-1,173,177,152,-1,152,177,178,-1,152,178,164,-1,179,180,176,-1,176,180,181,-1,176,181,153,-1,25,182,27,-1,27,182,183,-1,27,183,125,-1,125,183,184,-1,125,184,123,-1,185,186,187,-1,186,185,188,-1,188,185,189,-1,188,189,190,-1,190,189,191,-1,190,191,192,-1,193,194,195,-1,195,194,196,-1,195,196,197,-1,198,199,200,-1,201,202,203,-1,203,202,204,-1,205,206,207,-1,207,206,208,-1,209,210,211,-1,211,210,212,-1,213,214,215,-1,205,207,199,-1,199,207,216,-1,199,216,200,-1,200,216,217,-1,200,217,218,-1,218,217,219,-1,218,219,220,-1,221,222,223,-1,223,222,224,-1,223,224,225,-1,225,224,213,-1,225,213,226,-1,226,213,215,-1,227,228,229,-1,229,228,230,-1,229,230,231,-1,231,232,233,-1,231,233,234,-1,235,236,237,-1,237,236,238,-1,237,238,230,-1,230,238,239,-1,230,239,240,-1,240,241,230,-1,230,241,242,-1,230,242,231,-1,231,242,243,-1,231,243,232,-1,244,245,246,-1,246,245,247,-1,246,247,248,-1,248,247,249,-1,248,249,227,-1,250,251,252,-1,253,254,252,-1,233,255,234,-1,234,255,256,-1,234,256,257,-1,253,252,258,-1,257,259,234,-1,234,259,260,-1,234,260,261,-1,261,260,262,-1,261,262,250,-1,254,263,252,-1,252,263,264,-1,252,264,265,-1,266,267,251,-1,251,267,268,-1,251,268,252,-1,252,268,269,-1,252,269,258,-1,270,271,272,-1,272,271,273,-1,272,273,274,-1,272,275,270,-1,270,275,276,-1,270,276,277,-1,277,278,270,-1,270,278,279,-1,270,279,280,-1,280,279,281,-1,280,281,282,-1,282,281,283,-1,282,283,251,-1,251,283,284,-1,251,284,266,-1,285,286,274,-1,274,286,287,-1,274,287,272,-1,288,289,235,-1,235,289,290,-1,235,290,236,-1,288,291,289,-1,289,291,292,-1,289,292,293,-1,293,292,294,-1,293,295,296,-1,294,297,293,-1,293,297,298,-1,293,298,299,-1,299,300,293,-1,293,300,301,-1,293,301,295,-1,296,302,293,-1,293,302,303,-1,293,303,304,-1,305,306,307,-1,308,309,310,-1,310,309,311,-1,312,313,203,-1,203,313,314,-1,203,314,201,-1,201,314,315,-1,203,316,312,-1,312,316,317,-1,312,317,318,-1,319,317,320,-1,320,317,316,-1,320,316,321,-1,321,316,203,-1,321,203,322,-1,322,203,185,-1,322,185,323,-1,323,185,324,-1,323,324,307,-1,307,324,325,-1,307,325,305,-1,326,327,328,-1,328,327,329,-1,330,331,329,-1,329,331,332,-1,329,332,328,-1,328,332,333,-1,334,335,336,-1,336,335,337,-1,332,338,333,-1,333,338,339,-1,333,339,340,-1,341,342,343,-1,334,336,326,-1,326,336,344,-1,326,344,327,-1,327,344,345,-1,327,345,343,-1,343,345,346,-1,343,346,341,-1,347,348,330,-1,330,348,349,-1,330,349,331,-1,13,350,14,-1,14,350,351,-1,14,351,352,-1,352,351,353,-1,352,353,354,-1,26,355,356,-1,28,26,35,-1,35,26,356,-1,35,356,357,-1,358,359,360,-1,361,362,363,-1,360,359,363,-1,363,359,364,-1,363,364,361,-1,365,191,366,-1,366,191,363,-1,366,363,367,-1,367,363,362,-1,368,369,360,-1,360,369,370,-1,360,370,358,-1,371,372,373,-1,373,372,374,-1,373,374,375,-1,373,376,377,-1,377,378,373,-1,373,378,379,-1,373,379,371,-1,10,9,347,-1,347,9,380,-1,347,380,381,-1,382,383,384,-1,384,383,385,-1,384,385,386,-1,386,385,387,-1,386,387,381,-1,381,387,342,-1,381,342,347,-1,347,342,341,-1,347,341,348,-1,388,389,384,-1,384,389,390,-1,384,390,391,-1,392,393,394,-1,394,393,395,-1,396,397,398,-1,398,397,399,-1,398,399,400,-1,400,399,395,-1,400,395,401,-1,401,395,393,-1,391,402,384,-1,384,402,403,-1,384,403,382,-1,396,398,384,-1,384,398,404,-1,384,404,388,-1,405,406,407,-1,407,406,408,-1,408,406,409,-1,408,409,410,-1,411,412,413,-1,413,414,411,-1,411,414,415,-1,411,415,416,-1,14,417,411,-1,411,417,418,-1,411,418,412,-1,419,420,352,-1,352,420,421,-1,352,421,14,-1,14,421,422,-1,14,422,417,-1,423,424,425,-1,425,426,423,-1,423,426,427,-1,423,427,428,-1,428,429,423,-1,423,429,430,-1,423,430,419,-1,423,431,424,-1,424,431,231,-1,424,231,432,-1,432,231,433,-1,387,434,342,-1,342,434,435,-1,342,435,436,-1,436,435,437,-1,436,437,438,-1,439,440,252,-1,252,440,441,-1,250,252,261,-1,261,252,441,-1,261,441,222,-1,222,441,442,-1,222,442,224,-1,443,440,444,-1,444,440,439,-1,444,439,445,-1,445,439,446,-1,446,439,447,-1,447,439,252,-1,447,252,448,-1,448,252,449,-1,448,449,450,-1,451,449,452,-1,452,449,453,-1,454,455,456,-1,451,457,449,-1,449,457,458,-1,449,458,459,-1,459,460,449,-1,449,460,461,-1,449,461,450,-1,456,462,454,-1,454,462,463,-1,454,463,453,-1,453,463,464,-1,453,464,452,-1,465,466,467,-1,467,466,454,-1,454,466,468,-1,454,468,455,-1,6,8,469,-1,72,74,71,-1,71,74,470,-1,71,470,471,-1,472,473,474,-1,474,473,467,-1,474,467,475,-1,475,467,454,-1,475,454,476,-1,476,454,453,-1,477,368,478,-1,478,368,360,-1,478,360,479,-1,479,360,363,-1,479,363,472,-1,265,244,252,-1,252,244,246,-1,252,246,449,-1,449,246,480,-1,449,480,453,-1,453,480,481,-1,453,481,476,-1,473,482,467,-1,467,482,8,-1,467,8,465,-1,465,8,7,-1,227,229,248,-1,248,229,483,-1,248,483,246,-1,246,483,5,-1,246,5,480,-1,480,5,4,-1,480,4,481,-1,482,200,8,-1,8,200,218,-1,8,218,469,-1,469,218,220,-1,469,220,221,-1,221,220,315,-1,221,315,222,-1,222,315,314,-1,484,485,486,-1,486,485,487,-1,486,487,488,-1,489,125,490,-1,490,125,17,-1,490,17,491,-1,491,17,87,-1,491,87,492,-1,492,87,71,-1,492,71,493,-1,493,71,471,-1,493,471,494,-1,495,496,497,-1,498,499,497,-1,497,499,488,-1,497,488,495,-1,495,488,487,-1,495,487,491,-1,491,487,500,-1,491,500,490,-1,501,502,503,-1,503,502,504,-1,505,506,507,-1,508,509,510,-1,510,511,512,-1,513,514,507,-1,507,514,515,-1,507,515,505,-1,501,516,502,-1,502,516,517,-1,502,517,518,-1,518,517,519,-1,520,521,519,-1,519,521,522,-1,519,522,518,-1,508,510,523,-1,231,524,525,-1,509,526,510,-1,510,526,527,-1,510,527,511,-1,528,529,231,-1,231,529,530,-1,231,530,524,-1,506,531,507,-1,507,531,532,-1,507,532,229,-1,533,534,519,-1,519,534,535,-1,519,535,536,-1,525,537,231,-1,231,537,538,-1,231,538,229,-1,229,538,539,-1,229,539,507,-1,3,5,540,-1,540,5,483,-1,540,483,541,-1,541,483,229,-1,541,229,510,-1,510,229,532,-1,510,532,523,-1,512,542,510,-1,510,542,543,-1,510,543,431,-1,431,543,504,-1,431,504,544,-1,544,504,502,-1,544,545,431,-1,431,545,546,-1,431,546,231,-1,231,546,547,-1,231,547,528,-1,536,548,519,-1,519,548,549,-1,519,549,520,-1,209,211,204,-1,204,211,198,-1,204,198,203,-1,203,198,200,-1,203,200,550,-1,551,552,189,-1,189,552,553,-1,554,555,185,-1,185,555,556,-1,185,556,189,-1,189,556,557,-1,189,557,551,-1,553,558,189,-1,189,558,559,-1,189,559,560,-1,472,363,473,-1,473,363,191,-1,473,191,482,-1,482,191,189,-1,482,189,200,-1,200,189,560,-1,200,560,550,-1,550,561,203,-1,203,561,562,-1,203,562,185,-1,185,562,563,-1,185,563,564,-1,564,565,185,-1,185,565,566,-1,185,566,554,-1,355,26,354,-1,354,26,27,-1,354,27,352,-1,352,27,125,-1,352,125,495,-1,495,125,489,-1,495,489,496,-1,419,352,423,-1,423,352,495,-1,423,495,431,-1,431,495,491,-1,431,491,510,-1,510,491,492,-1,510,492,541,-1,541,492,493,-1,541,493,540,-1,540,493,494,-1,540,494,3,-1,313,308,314,-1,314,308,310,-1,314,310,222,-1,222,310,327,-1,222,327,261,-1,261,327,343,-1,261,343,234,-1,234,343,342,-1,234,342,231,-1,231,342,436,-1,231,436,433,-1,433,436,438,-1,0,2,567,-1,568,569,310,-1,329,570,2,-1,2,570,571,-1,2,571,572,-1,306,305,311,-1,311,305,2,-1,311,2,310,-1,310,2,1,-1,310,1,568,-1,569,573,310,-1,310,573,574,-1,310,574,575,-1,575,576,310,-1,310,576,577,-1,310,577,327,-1,327,577,578,-1,327,578,329,-1,329,578,579,-1,329,579,570,-1,572,580,2,-1,2,580,581,-1,2,581,567,-1,416,405,411,-1,411,405,407,-1,411,407,14,-1,14,407,357,-1,14,357,12,-1,12,357,356,-1,195,192,193,-1,193,192,191,-1,193,191,582,-1,582,191,365,-1,582,365,583,-1,583,365,584,-1,583,584,187,-1,187,584,585,-1,187,585,185,-1,185,585,586,-1,185,586,324,-1,324,586,375,-1,324,375,325,-1,325,375,374,-1,325,374,305,-1,305,374,587,-1,305,587,2,-1,2,587,588,-1,2,588,329,-1,329,588,589,-1,329,589,330,-1,330,589,590,-1,330,590,347,-1,347,590,591,-1,347,591,10,-1,10,591,408,-1,10,408,11,-1,11,408,410,-1,
        ]
    }
}
Shape{
    appearance Appearance {
        material  Material {
            diffuseColor 0.8509803921568627 0.8509803921568627 0.8509803921568627
            specularColor 0.4235294117647059 0.4235294117647059 0.4235294117647059
            ambientIntensity 0.851
            transparency 0.0
            shininess 0.5
        }
    }
    geometry IndexedFaceSet {
        ccw TRUE
        solid FALSE
        coord DEF co Coordinate {
            point [
                0.374 -0.2166 0.1063, 0.374 -0.2166 0.1102, 0.3679 -0.2166 0.1063, 0.3679 -0.2166 0.1102, 0.2621 0.2165 0.1102, 0.2621 0.2165 0.1063, 0.2579 0.2165 0.1063, 0.2521 0.2165 0.107, 0.2467 0.2165 0.1091, 0.2448 0.2165 0.1102
            ]
        }
        coordIndex [
            0,1,2,-1,2,1,3,-1,4,5,6,-1,6,7,4,-1,4,7,8,-1,4,8,9,-1,
        ]
    }
}
Shape{
    appearance Appearance {
        material  Material {
            diffuseColor 1.0 1.0 1.0
            specularColor 0.5019607843137255 0.5019607843137255 0.5019607843137255
            ambientIntensity 1.0
            transparency 0.0
            shininess 0.5
        }
    }
    geometry IndexedFaceSet {
        ccw TRUE
        solid FALSE
        coord DEF co Coordinate {
            point [
                -0.3898 -0.0984 0.1063, -0.3937 -0.0984 0.1063, -0.3898 -0.1378 0.1063, -0.3937 -0.2461 0.1063, -0.374 -0.1364 0.1063, -0.374 -0.2166 0.1063, -0.2579 -0.2166 0.1063, -0.2579 -0.2461 0.1063, -0.3937 0.246 0.1063, -0.3937 0.0984 0.1063, -0.3898 0.1377 0.1063, -0.3898 0.0983 0.1063, -0.2579 0.2165 0.1063, -0.2579 0.246 0.1063, -0.374 0.2165 0.1063, -0.374 0.1364 0.1063, 0.3898 0.0983 0.1063, 0.3937 0.0984 0.1063, 0.3898 0.1377 0.1063, 0.3937 0.246 0.1063, 0.2579 0.2165 0.1063, 0.2621 0.2165 0.1063, 0.2579 0.246 0.1063, 0.2621 0.2358 0.1063, 0.3679 0.2358 0.1063, 0.374 0.1364 0.1063, 0.374 0.2165 0.1063, 0.3679 0.2165 0.1063, 0.3937 -0.0984 0.1063, 0.3898 -0.0984 0.1063, 0.3898 -0.1378 0.1063, 0.3937 -0.2461 0.1063, 0.374 -0.1364 0.1063, 0.374 -0.2166 0.1063, 0.2621 -0.2166 0.1063, 0.2579 -0.2166 0.1063, 0.2621 -0.2359 0.1063, 0.2579 -0.2461 0.1063, 0.3679 -0.2359 0.1063, 0.3679 -0.2166 0.1063
            ]
        }
        coordIndex [
            0,1,2,-1,2,1,3,-1,4,2,5,-1,5,2,3,-1,5,3,6,-1,6,3,7,-1,8,9,10,-1,10,9,11,-1,12,13,14,-1,14,13,8,-1,14,8,15,-1,15,8,10,-1,16,17,18,-1,18,17,19,-1,20,21,22,-1,22,21,23,-1,22,23,19,-1,19,23,24,-1,25,18,26,-1,26,18,19,-1,26,19,27,-1,27,19,24,-1,28,29,30,-1,28,30,31,-1,31,30,32,-1,31,32,33,-1,34,35,36,-1,36,35,37,-1,36,37,38,-1,38,37,31,-1,38,31,39,-1,39,31,33,-1,
        ]
    }
}
Shape{
    appearance Appearance {
        material  Material {
            diffuseColor 0.8509803921568627 0.8509803921568627 0.8509803921568627
            specularColor 0.4235294117647059 0.4235294117647059 0.4235294117647059
            ambientIntensity 0.851
            transparency 0.0
            shininess 0.5
        }
    }
    geometry IndexedFaceSet {
        ccw TRUE
        solid FALSE
        coord DEF co Coordinate {
            point [
                -0.374 -0.2166 0.1102, -0.374 -0.2166 0.1063, -0.2579 -0.2166 0.1063, -0.2521 -0.2166 0.107, -0.2467 -0.2166 0.1091, -0.2448 -0.2166 0.1102, -0.2467 0.2165 0.1091, -0.2521 0.2165 0.107, -0.2579 0.2165 0.1063, -0.374 0.2165 0.1063, -0.374 0.2165 0.1102, -0.2448 0.2165 0.1102, -0.374 0.1364 0.1102, -0.3898 0.1377 0.1102, -0.3898 0.0944 0.1102, -0.3694 0.0913 0.1102, -0.3502 0.0839 0.1102, -0.3898 -0.0944 0.1102, -0.3898 -0.1378 0.1102, -0.3694 -0.0913 0.1102, -0.374 -0.1364 0.1102, -0.3502 -0.0839 0.1102, -0.333 -0.0725 0.1102, -0.3081 0.04 0.1102, -0.3188 0.0576 0.1102, -0.333 0.0724 0.1102, -0.3081 -0.04 0.1102, -0.3188 -0.0576 0.1102, -0.3015 0.0205 0.1102, -0.2992 -0.0 0.1102, -0.3015 -0.0205 0.1102, 0.3679 0.2165 0.1102, 0.374 0.2165 0.1102, 0.3679 0.2165 0.1063, 0.374 0.2165 0.1063, 0.2621 -0.2166 0.1102, 0.2448 -0.2166 0.1102, 0.2467 -0.2166 0.1091, 0.2521 -0.2166 0.107, 0.2579 -0.2166 0.1063, 0.2621 -0.2166 0.1063, 0.374 0.1364 0.1102, 0.3188 0.0576 0.1102, 0.333 0.0724 0.1102, 0.3898 0.0944 0.1102, 0.3898 0.1377 0.1102, 0.3694 0.0913 0.1102, 0.3502 0.0839 0.1102, 0.2621 0.2165 0.1102, 0.2448 0.2165 0.1102, 0.2621 0.1739 0.1102, 0.3898 -0.1378 0.1102, 0.3898 -0.0944 0.1102, 0.374 -0.1364 0.1102, 0.3694 -0.0913 0.1102, 0.3502 -0.0839 0.1102, 0.333 -0.0725 0.1102, 0.3188 -0.0576 0.1102, 0.3679 -0.2166 0.1102, 0.374 -0.2166 0.1102, 0.3679 -0.1912 0.1102, 0.3384 -0.1848 0.1102, 0.3103 -0.174 0.1102, 0.2621 -0.174 0.1102, 0.3015 -0.0205 0.1102, 0.2992 -0.0 0.1102, 0.3081 -0.04 0.1102, 0.3015 0.0205 0.1102, 0.3103 0.1739 0.1102, 0.3081 0.04 0.1102, 0.3384 0.1848 0.1102, 0.3679 0.1912 0.1102
            ]
        }
        coordIndex [
            0,1,2,-1,3,4,2,-1,2,4,5,-1,2,5,0,-1,6,7,8,-1,9,10,8,-1,8,10,11,-1,8,11,6,-1,11,10,12,-1,13,14,12,-1,12,14,15,-1,12,15,16,-1,17,18,19,-1,19,18,20,-1,19,20,21,-1,21,20,22,-1,23,11,24,-1,24,11,12,-1,24,12,25,-1,25,12,16,-1,5,26,27,-1,22,20,27,-1,27,20,0,-1,27,0,5,-1,23,28,11,-1,11,28,29,-1,11,29,5,-1,5,29,30,-1,5,30,26,-1,31,32,33,-1,33,32,34,-1,35,36,37,-1,37,38,35,-1,35,38,39,-1,35,39,40,-1,41,42,43,-1,44,45,46,-1,46,45,41,-1,46,41,47,-1,47,41,43,-1,48,49,50,-1,50,49,36,-1,51,52,53,-1,53,52,54,-1,54,55,53,-1,53,55,56,-1,53,56,57,-1,58,59,60,-1,60,59,53,-1,60,53,61,-1,61,53,57,-1,61,57,62,-1,63,64,65,-1,62,57,63,-1,63,57,66,-1,63,66,64,-1,67,68,65,-1,65,68,50,-1,65,50,63,-1,63,50,36,-1,63,36,35,-1,67,69,68,-1,68,69,42,-1,68,42,70,-1,70,42,41,-1,70,41,71,-1,71,41,32,-1,71,32,31,-1,
        ]
    }
}
Shape{
    appearance Appearance {
        material  Material {
            diffuseColor 1.0 1.0 1.0
            specularColor 0.5019607843137255 0.5019607843137255 0.5019607843137255
            ambientIntensity 1.0
            transparency 0.0
            shininess 0.5
        }
    }
    geometry IndexedFaceSet {
        ccw TRUE
        solid FALSE
        coord DEF co Coordinate {
            point [
                -0.3898 0.0983 0.0039, -0.3937 0.0984 0.0039, -0.3898 0.1377 0.0039, -0.3937 0.246 0.0039, 0.3898 -0.0984 0.0039, 0.3937 -0.0984 0.0039, 0.3898 -0.1378 0.0039, 0.3937 -0.2461 0.0039, -0.3937 -0.0984 0.0039, -0.3898 -0.0984 0.0039, -0.3898 -0.1378 0.0039, -0.3937 -0.2461 0.0039, -0.374 -0.1364 0.0039, -0.374 -0.2166 0.0039, -0.1103 -0.1211 0.0039, 0.0296 -0.021 0.0039, 0.1356 -0.021 0.0039, 0.374 0.1364 0.0039, 0.3937 0.246 0.0039, 0.3898 0.1377 0.0039, 0.3937 0.0984 0.0039, 0.3898 0.0983 0.0039, 0.374 -0.1364 0.0039, 0.374 -0.2166 0.0039, 0.1772 -0.2166 0.0039, -0.1772 -0.2166 0.0039, 0.374 0.2165 0.0039, 0.1772 0.2165 0.0039, -0.1772 0.2165 0.0039, -0.1103 0.121 0.0039, 0.1356 0.0209 0.0039, 0.0296 0.0209 0.0039, -0.374 0.1364 0.0039, -0.374 0.2165 0.0039, 0.3937 0.0984 0.1063, 0.3898 0.0983 0.1063, 0.3898 -0.0984 0.1063, 0.3937 -0.0984 0.1063, -0.3898 0.0983 0.1063, -0.3937 0.0984 0.1063, -0.3937 -0.0984 0.1063, -0.3898 -0.0984 0.1063, 0.3937 -0.2461 0.1063, -0.3937 0.246 0.1063, 0.3937 0.246 0.1063, -0.3937 -0.2461 0.1063, -0.2356 -0.2461 0.1222, 0.2467 -0.2461 0.1091, 0.2419 -0.2461 0.1125, 0.2579 -0.2461 0.1063, 0.2521 -0.2461 0.107, -0.2419 -0.2461 0.1125, -0.2381 -0.2461 0.1169, -0.2467 -0.2461 0.1091, -0.2521 -0.2461 0.107, -0.2579 -0.2461 0.1063, 0.2381 -0.2461 0.1169, 0.2356 -0.2461 0.1222, 0.2343 -0.2461 0.1279, 0.2181 -0.2461 0.3131, -0.2181 -0.2461 0.3131, -0.2343 -0.2461 0.1279, 0.2169 -0.2461 0.3188, 0.2143 -0.2461 0.324, 0.1946 -0.2461 0.3346, 0.2106 -0.2461 0.3284, 0.2058 -0.2461 0.3318, 0.2004 -0.2461 0.3339, -0.2143 -0.2461 0.324, -0.2169 -0.2461 0.3188, -0.1946 -0.2461 0.3346, -0.2106 -0.2461 0.3284, -0.2004 -0.2461 0.3339, -0.2058 -0.2461 0.3318
            ]
        }
        coordIndex [
            0,1,2,-1,2,1,3,-1,4,5,6,-1,6,5,7,-1,8,9,10,-1,8,10,11,-1,11,10,12,-1,11,12,13,-1,14,15,16,-1,17,18,19,-1,19,18,20,-1,19,20,21,-1,22,6,23,-1,23,6,7,-1,23,7,24,-1,24,7,11,-1,24,11,25,-1,25,11,13,-1,17,26,18,-1,18,26,27,-1,18,27,3,-1,28,29,25,-1,25,29,14,-1,25,14,24,-1,24,14,16,-1,24,16,27,-1,27,16,30,-1,27,30,31,-1,32,2,33,-1,33,2,3,-1,33,3,28,-1,28,3,27,-1,28,27,29,-1,29,27,31,-1,20,34,21,-1,21,34,35,-1,4,36,5,-1,5,36,37,-1,0,38,1,-1,1,38,39,-1,8,40,9,-1,9,40,41,-1,37,42,5,-1,5,42,7,-1,39,43,1,-1,1,43,3,-1,20,18,34,-1,34,18,44,-1,8,11,40,-1,40,11,45,-1,46,47,48,-1,42,49,7,-1,7,49,50,-1,7,50,51,-1,51,50,47,-1,51,47,52,-1,52,47,46,-1,51,53,7,-1,7,53,54,-1,7,54,11,-1,11,54,55,-1,11,55,45,-1,48,56,46,-1,46,56,57,-1,46,57,58,-1,59,60,58,-1,58,60,61,-1,58,61,46,-1,62,63,64,-1,65,66,63,-1,63,66,67,-1,63,67,64,-1,68,69,70,-1,70,69,60,-1,70,60,64,-1,64,60,59,-1,64,59,62,-1,68,70,71,-1,71,70,72,-1,71,72,73,-1,
        ]
    }
}
Shape{
    appearance Appearance {
        material  Material {
            diffuseColor 0.8509803921568627 0.8509803921568627 0.8509803921568627
            specularColor 0.4235294117647059 0.4235294117647059 0.4235294117647059
            ambientIntensity 0.851
            transparency 0.0
            shininess 0.5
        }
    }
    geometry IndexedFaceSet {
        ccw TRUE
        solid FALSE
        coord DEF co Coordinate {
            point [
                -0.374 0.2165 0.0039, -0.374 0.2165 0.0, -0.374 0.1364 0.0039, -0.374 0.1364 0.0, -0.3898 0.1377 0.0, -0.3898 0.1377 0.0039, -0.3898 -0.1378 0.0, -0.374 -0.1364 0.0, -0.3898 -0.1378 0.0039, -0.374 -0.1364 0.0039, -0.374 -0.2166 0.0039, -0.374 -0.2166 0.0, -0.1772 -0.2166 0.0039, -0.1772 -0.2166 0.0, -0.1772 0.2165 0.0039, -0.1772 0.2165 0.0, -0.374 0.1364 0.1102, -0.374 0.2165 0.1102, -0.374 0.1364 0.1063, -0.374 0.2165 0.1063, -0.3898 0.1377 0.1063, -0.3898 0.1377 0.1102, -0.3898 0.0983 0.0039, -0.3898 0.0944 0.0, -0.3898 0.0983 0.1063, -0.3898 0.0944 0.1102, -0.3694 0.0913 0.1102, -0.3694 0.0913 0.0, -0.3502 0.0839 0.1102, -0.3502 0.0839 0.0, -0.333 0.0724 0.1102, -0.333 0.0724 0.0, -0.3188 0.0576 0.1102, -0.3188 0.0576 0.0, -0.3081 0.04 0.1102, -0.3081 0.04 0.0, -0.3015 0.0205 0.1102, -0.3015 0.0205 0.0, -0.2992 -0.0 0.1102, -0.2992 -0.0 0.0, -0.3015 -0.0205 0.1102, -0.3015 -0.0205 0.0, -0.3081 -0.04 0.1102, -0.3081 -0.04 0.0, -0.3188 -0.0576 0.1102, -0.3188 -0.0576 0.0, -0.333 -0.0725 0.1102, -0.333 -0.0725 0.0, -0.3502 -0.0839 0.1102, -0.3502 -0.0839 0.0, -0.3694 -0.0913 0.1102, -0.3694 -0.0913 0.0, -0.3898 -0.0944 0.1102, -0.3898 -0.0944 0.0, -0.3898 -0.1378 0.1063, -0.3898 -0.1378 0.1102, -0.3898 -0.0984 0.1063, -0.3898 -0.0984 0.0039, -0.374 -0.1364 0.1063, -0.374 -0.1364 0.1102, -0.374 -0.2166 0.1102, -0.374 -0.2166 0.1063, 0.3898 0.1377 0.0, 0.374 0.1364 0.0, 0.3898 0.1377 0.0039, 0.374 0.1364 0.0039, 0.374 0.2165 0.0039, 0.374 0.2165 0.0, 0.1772 0.2165 0.0039, 0.1772 0.2165 0.0, 0.1772 -0.2166 0.0039, 0.1772 -0.2166 0.0, 0.374 -0.2166 0.0039, 0.374 -0.2166 0.0, 0.374 -0.1364 0.0039, 0.374 -0.1364 0.0, 0.3898 -0.1378 0.0, 0.3898 -0.1378 0.0039, 0.3898 -0.0944 0.1102, 0.3898 -0.0944 0.0, 0.3694 -0.0913 0.1102, 0.3694 -0.0913 0.0, 0.3502 -0.0839 0.1102, 0.3502 -0.0839 0.0, 0.333 -0.0725 0.1102, 0.333 -0.0725 0.0, 0.3188 -0.0576 0.1102, 0.3188 -0.0576 0.0, 0.3081 -0.04 0.1102, 0.3081 -0.04 0.0, 0.3015 -0.0205 0.1102, 0.3015 -0.0205 0.0, 0.2992 -0.0 0.1102, 0.2992 -0.0 0.0, 0.3015 0.0205 0.1102, 0.3015 0.0205 0.0, 0.3081 0.04 0.1102, 0.3081 0.04 0.0, 0.3188 0.0576 0.1102, 0.3188 0.0576 0.0, 0.333 0.0724 0.1102, 0.333 0.0724 0.0, 0.3502 0.0839 0.1102, 0.3502 0.0839 0.0, 0.3694 0.0913 0.1102, 0.3694 0.0913 0.0, 0.3898 0.0944 0.1102, 0.3898 0.0944 0.0, 0.3898 0.1377 0.1063, 0.3898 0.1377 0.1102, 0.3898 0.0983 0.1063, 0.3898 0.0983 0.0039, 0.374 0.1364 0.1063, 0.374 0.1364 0.1102, 0.374 0.2165 0.1102, 0.374 0.2165 0.1063, 0.374 -0.1364 0.1102, 0.374 -0.2166 0.1102, 0.374 -0.1364 0.1063, 0.374 -0.2166 0.1063, 0.3898 -0.1378 0.1063, 0.3898 -0.1378 0.1102, 0.3898 -0.0984 0.0039, 0.3898 -0.0984 0.1063
            ]
        }
        coordIndex [
            0,1,2,-1,2,1,3,-1,3,4,2,-1,2,4,5,-1,6,7,8,-1,8,7,9,-1,9,7,10,-1,10,7,11,-1,10,11,12,-1,12,11,13,-1,12,13,14,-1,14,13,15,-1,14,15,0,-1,0,15,1,-1,16,17,18,-1,18,17,19,-1,18,20,16,-1,16,20,21,-1,5,4,22,-1,22,4,23,-1,22,23,24,-1,24,23,25,-1,24,25,20,-1,20,25,21,-1,25,23,26,-1,26,23,27,-1,26,27,28,-1,28,27,29,-1,28,29,30,-1,30,29,31,-1,30,31,32,-1,32,31,33,-1,32,33,34,-1,34,33,35,-1,34,35,36,-1,36,35,37,-1,36,37,38,-1,38,37,39,-1,38,39,40,-1,40,39,41,-1,40,41,42,-1,42,41,43,-1,42,43,44,-1,44,43,45,-1,44,45,46,-1,46,45,47,-1,46,47,48,-1,48,47,49,-1,48,49,50,-1,50,49,51,-1,50,51,52,-1,52,51,53,-1,54,55,56,-1,56,55,52,-1,56,52,57,-1,57,52,53,-1,57,53,8,-1,8,53,6,-1,54,58,55,-1,55,58,59,-1,60,59,61,-1,61,59,58,-1,15,35,33,-1,6,53,7,-1,7,53,51,-1,7,51,49,-1,23,4,27,-1,27,4,3,-1,27,3,29,-1,29,3,31,-1,13,11,7,-1,31,3,33,-1,33,3,1,-1,33,1,15,-1,43,13,45,-1,45,13,7,-1,45,7,47,-1,47,7,49,-1,43,41,13,-1,13,41,39,-1,13,39,15,-1,15,39,37,-1,15,37,35,-1,62,63,64,-1,64,63,65,-1,65,63,66,-1,66,63,67,-1,66,67,68,-1,68,67,69,-1,68,69,70,-1,70,69,71,-1,70,71,72,-1,72,71,73,-1,72,73,74,-1,74,73,75,-1,75,76,74,-1,74,76,77,-1,78,79,80,-1,80,79,81,-1,80,81,82,-1,82,81,83,-1,82,83,84,-1,84,83,85,-1,84,85,86,-1,86,85,87,-1,86,87,88,-1,88,87,89,-1,88,89,90,-1,90,89,91,-1,90,91,92,-1,92,91,93,-1,92,93,94,-1,94,93,95,-1,94,95,96,-1,96,95,97,-1,96,97,98,-1,98,97,99,-1,98,99,100,-1,100,99,101,-1,100,101,102,-1,102,101,103,-1,102,103,104,-1,104,103,105,-1,104,105,106,-1,106,105,107,-1,108,109,110,-1,110,109,106,-1,110,106,111,-1,111,106,107,-1,111,107,64,-1,64,107,62,-1,108,112,109,-1,109,112,113,-1,114,113,115,-1,115,113,112,-1,116,117,118,-1,118,117,119,-1,118,120,116,-1,116,120,121,-1,77,76,122,-1,122,76,79,-1,122,79,123,-1,123,79,78,-1,123,78,120,-1,120,78,121,-1,63,103,101,-1,75,87,85,-1,62,107,63,-1,63,107,105,-1,63,105,103,-1,79,76,81,-1,81,76,75,-1,81,75,83,-1,83,75,85,-1,101,99,63,-1,63,99,69,-1,63,69,67,-1,99,97,69,-1,69,97,95,-1,69,95,71,-1,71,95,93,-1,71,93,91,-1,75,73,87,-1,87,73,71,-1,87,71,89,-1,89,71,91,-1,
        ]
    }
}
Shape{
    appearance Appearance {
        material  Material {
            diffuseColor 0.3411764705882353 1.0 0.5803921568627451
            specularColor 0.16862745098039217 0.5019607843137255 0.2901960784313726
            ambientIntensity 0.7552
            transparency 0.0
            shininess 0.5
        }
    }
    geometry IndexedFaceSet {
        ccw TRUE
        solid FALSE
        coord DEF co Coordinate {
            point [
                0.0296 -0.021 0.0035, 0.1356 -0.021 0.0035, 0.0296 -0.021 0.0039, 0.1356 -0.021 0.0039, -0.1103 -0.1211 0.0035, -0.1103 -0.1211 0.0039, -0.1103 0.121 0.0035, -0.1103 0.121 0.0039, 0.0296 0.0209 0.0035, 0.0296 0.0209 0.0039, 0.1356 0.0209 0.0035, 0.1356 0.0209 0.0039
            ]
        }
        coordIndex [
            0,1,2,-1,2,1,3,-1,4,0,5,-1,5,0,2,-1,6,4,7,-1,7,4,5,-1,8,6,9,-1,9,6,7,-1,10,8,11,-1,11,8,9,-1,1,10,3,-1,3,10,11,-1,4,6,0,-1,0,6,8,-1,0,8,1,-1,1,8,10,-1,
        ]
    }
}
Shape{
    appearance Appearance {
        material  Material {
            diffuseColor 1.0 1.0 1.0
            specularColor 0.5019607843137255 0.5019607843137255 0.5019607843137255
            ambientIntensity 1.0
            transparency 0.0
            shininess 0.5
        }
    }
    geometry IndexedFaceSet {
        ccw TRUE
        solid FALSE
        coord DEF co Coordinate {
            point [
                -0.2181 0.246 0.3131, -0.2343 0.246 0.1279, -0.2181 -0.2461 0.3131, -0.2343 -0.2461 0.1279, 0.2181 -0.2461 0.3131, 0.2343 -0.2461 0.1279, 0.2181 0.246 0.3131, 0.2343 0.246 0.1279, -0.1946 -0.2461 0.3346, 0.1946 -0.2461 0.3346, -0.1946 0.246 0.3346, 0.1946 0.246 0.3346, -0.2169 -0.2461 0.3188, -0.2169 0.246 0.3188, -0.2143 -0.2461 0.324, -0.2143 0.246 0.324, -0.2106 -0.2461 0.3284, -0.2106 0.246 0.3284, -0.2058 -0.2461 0.3318, -0.2058 0.246 0.3318, -0.2004 -0.2461 0.3339, -0.2004 0.246 0.3339, 0.2169 0.246 0.3188, 0.2169 -0.2461 0.3188, 0.2143 0.246 0.324, 0.2143 -0.2461 0.324, 0.2106 0.246 0.3284, 0.2106 -0.2461 0.3284, 0.2058 0.246 0.3318, 0.2058 -0.2461 0.3318, 0.2004 0.246 0.3339, 0.2004 -0.2461 0.3339, -0.2579 0.246 0.1063, -0.2579 0.2165 0.1063, -0.2521 0.246 0.107, -0.2521 0.2165 0.107, -0.2467 0.246 0.1091, -0.2467 0.2165 0.1091, -0.2419 0.246 0.1125, -0.2579 -0.2166 0.1063, -0.2579 -0.2461 0.1063, -0.2521 -0.2166 0.107, -0.2521 -0.2461 0.107, -0.2467 -0.2166 0.1091, -0.2467 -0.2461 0.1091, -0.2448 -0.2166 0.1102, -0.2419 -0.2461 0.1125, -0.2448 0.2165 0.1102, -0.2356 -0.2461 0.1222, -0.2356 0.246 0.1222, -0.2381 -0.2461 0.1169, -0.2381 0.246 0.1169, 0.2579 0.2165 0.1063, 0.2579 0.246 0.1063, 0.2521 0.2165 0.107, 0.2521 0.246 0.107, 0.2467 0.2165 0.1091, 0.2467 0.246 0.1091, 0.2448 0.2165 0.1102, 0.2419 0.246 0.1125, 0.2448 -0.2166 0.1102, 0.2419 -0.2461 0.1125, 0.2467 -0.2166 0.1091, 0.2467 -0.2461 0.1091, 0.2521 -0.2166 0.107, 0.2521 -0.2461 0.107, 0.2579 -0.2166 0.1063, 0.2579 -0.2461 0.1063, 0.2356 0.246 0.1222, 0.2356 -0.2461 0.1222, 0.2381 0.246 0.1169, 0.2381 -0.2461 0.1169
            ]
        }
        coordIndex [
            0,1,2,-1,2,1,3,-1,4,5,6,-1,6,5,7,-1,8,9,10,-1,10,9,11,-1,0,2,12,-1,0,12,13,-1,13,12,14,-1,13,14,15,-1,15,14,16,-1,15,16,17,-1,17,16,18,-1,17,18,19,-1,19,18,20,-1,19,20,21,-1,21,20,8,-1,21,8,10,-1,4,6,22,-1,4,22,23,-1,23,22,24,-1,23,24,25,-1,25,24,26,-1,25,26,27,-1,27,26,28,-1,27,28,29,-1,29,28,30,-1,29,30,31,-1,31,30,11,-1,31,11,9,-1,32,33,34,-1,34,33,35,-1,34,35,36,-1,36,35,37,-1,36,37,38,-1,39,40,41,-1,41,40,42,-1,41,42,43,-1,43,42,44,-1,43,44,45,-1,45,44,46,-1,45,46,47,-1,3,1,48,-1,48,1,49,-1,48,49,50,-1,50,49,51,-1,50,51,46,-1,46,51,38,-1,46,38,47,-1,47,38,37,-1,52,53,54,-1,54,53,55,-1,54,55,56,-1,56,55,57,-1,56,57,58,-1,58,57,59,-1,60,61,62,-1,62,61,63,-1,62,63,64,-1,64,63,65,-1,64,65,66,-1,66,65,67,-1,7,5,68,-1,68,5,69,-1,68,69,70,-1,70,69,71,-1,70,71,59,-1,59,71,61,-1,59,61,58,-1,58,61,60,-1,
        ]
    }
}
Shape{
    appearance Appearance {
        material  Material {
            diffuseColor 0.3411764705882353 1.0 0.5803921568627451
            specularColor 0.16862745098039217 0.5019607843137255 0.2901960784313726
            ambientIntensity 0.7552
            transparency 0.0
            shininess 0.5
        }
    }
    geometry IndexedFaceSet {
        ccw TRUE
        solid FALSE
        coord DEF co Coordinate {
            point [
                0.3103 0.1739 0.1106, 0.3103 0.1739 0.1102, 0.3384 0.1848 0.1106, 0.3384 0.1848 0.1102, 0.3679 0.1912 0.1106, 0.3679 0.1912 0.1102, 0.3679 0.2165 0.1102, 0.3679 0.2165 0.1063, 0.3679 0.2358 0.1063, 0.3679 0.2358 0.1106, 0.2621 0.1739 0.1102, 0.2621 0.1739 0.1106, 0.2621 0.2165 0.1102, 0.2621 0.2358 0.1106, 0.2621 0.2165 0.1063, 0.2621 0.2358 0.1063, 0.3679 -0.1912 0.1106, 0.3679 -0.1912 0.1102, 0.3384 -0.1848 0.1106, 0.3384 -0.1848 0.1102, 0.3103 -0.174 0.1106, 0.3103 -0.174 0.1102, 0.2621 -0.174 0.1106, 0.2621 -0.174 0.1102, 0.2621 -0.2166 0.1102, 0.2621 -0.2166 0.1063, 0.2621 -0.2359 0.1063, 0.2621 -0.2359 0.1106, 0.3679 -0.2166 0.1102, 0.3679 -0.2359 0.1106, 0.3679 -0.2166 0.1063, 0.3679 -0.2359 0.1063
            ]
        }
        coordIndex [
            0,1,2,-1,2,1,3,-1,2,3,4,-1,4,3,5,-1,4,5,6,-1,7,8,6,-1,6,8,9,-1,6,9,4,-1,10,11,12,-1,12,11,13,-1,12,13,14,-1,14,13,15,-1,1,0,10,-1,10,0,11,-1,13,9,15,-1,15,9,8,-1,4,9,2,-1,2,9,13,-1,2,13,0,-1,0,13,11,-1,16,17,18,-1,18,17,19,-1,18,19,20,-1,20,19,21,-1,22,20,23,-1,23,20,21,-1,22,23,24,-1,25,26,24,-1,24,26,27,-1,24,27,22,-1,17,16,28,-1,28,16,29,-1,28,29,30,-1,30,29,31,-1,29,27,31,-1,31,27,26,-1,20,22,18,-1,18,22,27,-1,18,27,16,-1,16,27,29,-1,
        ]
    }
}
Shape{
    appearance Appearance {
        material  Material {
            diffuseColor 0.0 0.0 0.0
            specularColor 0.0 0.0 0.0
            ambientIntensity 0.0
            transparency 0.0
            shininess 0.5
        }
    }
    geometry IndexedFaceSet {
        ccw TRUE
        solid FALSE
        coord DEF co Coordinate {
            point [
                -0.0183 0.2461 0.2234, -0.0183 0.2461 0.2206, -0.0183 0.246 0.2234, -0.0183 0.246 0.2206, -0.0087 0.2461 0.2234, -0.0087 0.246 0.2234, -0.0089 0.2461 0.2447, -0.0089 0.246 0.2446, -0.0089 0.246 0.2447, -0.0058 0.2461 0.2448, -0.0058 0.246 0.2448, -0.0056 0.246 0.2207, -0.0056 0.2461 0.2207, -0.0058 0.246 0.2446, -0.0372 0.246 0.2215, -0.0372 0.2461 0.2215, -0.0368 0.2461 0.2213, -0.0306 0.2461 0.2201, -0.0306 0.246 0.2201, -0.0313 0.246 0.2202, -0.0342 0.2461 0.2205, -0.0342 0.246 0.2205, -0.0362 0.246 0.2211, -0.0368 0.246 0.2213, -0.0373 0.2461 0.2245, -0.0373 0.246 0.2245, -0.0362 0.246 0.224, -0.0349 0.2461 0.2234, -0.0349 0.246 0.2234, -0.0322 0.246 0.2229, -0.0322 0.2461 0.2229, -0.031 0.246 0.2229, -0.031 0.2461 0.2229, -0.0286 0.246 0.2232, -0.0286 0.2461 0.2232, -0.0269 0.246 0.2239, -0.0269 0.2461 0.2239, -0.0254 0.246 0.225, -0.0254 0.2461 0.225, -0.0249 0.246 0.2255, -0.0249 0.2461 0.2255, -0.0237 0.246 0.2271, -0.0237 0.2461 0.2271, -0.023 0.246 0.2291, -0.023 0.2461 0.2291, -0.0226 0.246 0.2315, -0.0226 0.2461 0.2315, -0.0226 0.246 0.2324, -0.0226 0.2461 0.2324, -0.023 0.246 0.2357, -0.023 0.2461 0.2357, -0.0238 0.246 0.2378, -0.0238 0.2461 0.2378, -0.0252 0.246 0.2396, -0.0252 0.2461 0.2396, -0.0268 0.246 0.2409, -0.0268 0.2461 0.2409, -0.0287 0.246 0.2418, -0.0287 0.2461 0.2418, -0.0308 0.246 0.2421, -0.0308 0.2461 0.2421, -0.0317 0.246 0.2422, -0.0317 0.2461 0.2422, -0.0374 0.246 0.2407, -0.0374 0.2461 0.2407, -0.0371 0.2461 0.2409, -0.0347 0.246 0.2418, -0.0347 0.2461 0.2418, -0.0362 0.246 0.2412, -0.0371 0.246 0.2409, -0.0374 0.2461 0.2439, -0.0374 0.246 0.2439, -0.0351 0.246 0.2446, -0.0349 0.2461 0.2447, -0.0362 0.246 0.2443, -0.0349 0.246 0.2447, -0.0318 0.246 0.245, -0.0318 0.2461 0.245, -0.0317 0.246 0.245, -0.0317 0.2461 0.245, -0.0282 0.2461 0.2446, -0.0287 0.246 0.2446, -0.0282 0.246 0.2446, -0.0257 0.246 0.2436, -0.0257 0.2461 0.2436, -0.0234 0.246 0.242, -0.0234 0.2461 0.242, -0.0229 0.246 0.2415, -0.0229 0.2461 0.2415, -0.0211 0.246 0.2392, -0.0211 0.2461 0.2392, -0.0202 0.246 0.2372, -0.0199 0.2461 0.2366, -0.0199 0.246 0.2366, -0.0194 0.246 0.2334, -0.0194 0.2461 0.2334, -0.0193 0.246 0.2322, -0.0193 0.2461 0.2322, -0.0197 0.246 0.2286, -0.0197 0.2461 0.2286, -0.0202 0.246 0.2271, -0.0206 0.2461 0.226, -0.0206 0.246 0.226, -0.022 0.246 0.2239, -0.022 0.2461 0.2239, -0.0223 0.246 0.2235, -0.0223 0.2461 0.2235, -0.0294 0.246 0.2202, -0.0291 0.2461 0.2202, -0.0291 0.246 0.2202, -0.0265 0.2461 0.2208, -0.0265 0.246 0.2208, -0.0243 0.2461 0.2219, -0.0243 0.246 0.2219, -0.055 0.2461 0.2231, -0.055 0.2461 0.2204, -0.055 0.246 0.2231, -0.055 0.246 0.2204, -0.0452 0.246 0.2232, -0.0452 0.2461 0.2232, -0.0514 0.246 0.2231, -0.0452 0.2461 0.2313, -0.0452 0.246 0.2313, -0.0538 0.246 0.2312, -0.0538 0.2461 0.2312, -0.0514 0.246 0.2312, -0.0538 0.2461 0.234, -0.0538 0.246 0.234, -0.0452 0.246 0.234, -0.0452 0.2461 0.234, -0.0514 0.246 0.234, -0.0453 0.2461 0.2417, -0.0453 0.246 0.2417, -0.0546 0.246 0.2416, -0.0546 0.2461 0.2416, -0.0514 0.246 0.2417, -0.0546 0.2461 0.2444, -0.0546 0.246 0.2444, -0.0422 0.246 0.2445, -0.0422 0.2461 0.2445, -0.0514 0.246 0.2444, -0.042 0.2461 0.2205, -0.042 0.246 0.2205, -0.0514 0.246 0.2204, -0.0745 0.2461 0.227, -0.0733 0.2461 0.2255, -0.0755 0.2461 0.2236, -0.0728 0.2461 0.2251, -0.073 0.2461 0.2218, -0.0712 0.2461 0.2241, -0.0702 0.2461 0.2208, -0.0692 0.2461 0.2233, -0.0661 0.2461 0.2203, -0.0661 0.2461 0.223, -0.0595 0.2461 0.2203, -0.0626 0.2461 0.2231, -0.0597 0.2461 0.2444, -0.0627 0.2461 0.2416, -0.0665 0.2461 0.2443, -0.0664 0.2461 0.2416, -0.0702 0.2461 0.2439, -0.0695 0.2461 0.2412, -0.0731 0.2461 0.2428, -0.0715 0.2461 0.2404, -0.0756 0.2461 0.2411, -0.0733 0.2461 0.2392, -0.0764 0.2461 0.2403, -0.0741 0.2461 0.2384, -0.0779 0.2461 0.2382, -0.075 0.2461 0.2371, -0.0788 0.2461 0.2359, -0.0756 0.2461 0.2352, -0.0791 0.2461 0.2325, -0.0759 0.2461 0.2325, -0.0791 0.2461 0.231, -0.0758 0.2461 0.2309, -0.0785 0.2461 0.2282, -0.0753 0.2461 0.2287, -0.0773 0.2461 0.2257, -0.0661 0.246 0.2203, -0.0595 0.246 0.2203, -0.0702 0.246 0.2208, -0.073 0.246 0.2218, -0.0755 0.246 0.2236, -0.0773 0.246 0.2257, -0.0785 0.246 0.2282, -0.0791 0.246 0.231, -0.0791 0.246 0.2325, -0.0788 0.246 0.2359, -0.0779 0.246 0.2382, -0.0764 0.246 0.2403, -0.0756 0.246 0.2411, -0.0731 0.246 0.2428, -0.0702 0.246 0.2439, -0.0665 0.246 0.2443, -0.0597 0.246 0.2444, -0.0664 0.246 0.2416, -0.0627 0.246 0.2416, -0.0626 0.246 0.2231, -0.0661 0.246 0.223, -0.0733 0.246 0.2255, -0.0728 0.246 0.2251, -0.0712 0.246 0.2241, -0.0692 0.246 0.2233, -0.0759 0.246 0.2325, -0.0758 0.246 0.2309, -0.0753 0.246 0.2287, -0.0745 0.246 0.227, -0.0733 0.246 0.2392, -0.0741 0.246 0.2384, -0.075 0.246 0.2371, -0.0756 0.246 0.2352, -0.0695 0.246 0.2412, -0.0715 0.246 0.2404
            ]
        }
        coordIndex [
            0,1,2,-1,2,1,3,-1,4,0,5,-1,5,0,2,-1,4,5,6,-1,6,5,7,-1,6,7,8,-1,9,6,10,-1,10,6,8,-1,11,12,13,-1,13,12,9,-1,13,9,10,-1,1,12,3,-1,3,12,11,-1,6,9,4,-1,4,9,12,-1,4,12,0,-1,0,12,1,-1,14,15,16,-1,17,18,19,-1,17,19,20,-1,19,21,20,-1,20,21,22,-1,20,22,16,-1,16,22,23,-1,16,23,14,-1,24,15,25,-1,25,15,14,-1,24,25,26,-1,24,26,27,-1,26,28,27,-1,27,28,29,-1,27,29,30,-1,30,29,31,-1,30,31,32,-1,32,31,33,-1,32,33,34,-1,34,33,35,-1,34,35,36,-1,36,35,37,-1,36,37,38,-1,38,37,39,-1,38,39,40,-1,40,39,41,-1,40,41,42,-1,42,41,43,-1,42,43,44,-1,44,43,45,-1,44,45,46,-1,46,45,47,-1,46,47,48,-1,48,47,49,-1,48,49,50,-1,50,49,51,-1,50,51,52,-1,52,51,53,-1,52,53,54,-1,54,53,55,-1,54,55,56,-1,56,55,57,-1,56,57,58,-1,58,57,59,-1,58,59,60,-1,60,59,61,-1,60,61,62,-1,63,64,65,-1,62,61,66,-1,62,66,67,-1,67,66,68,-1,67,68,65,-1,65,68,69,-1,65,69,63,-1,70,64,71,-1,71,64,63,-1,72,73,74,-1,74,73,70,-1,74,70,71,-1,72,75,73,-1,73,75,76,-1,73,76,77,-1,77,76,78,-1,77,78,79,-1,80,79,81,-1,81,79,78,-1,81,82,80,-1,80,82,83,-1,80,83,84,-1,84,83,85,-1,84,85,86,-1,86,85,87,-1,86,87,88,-1,88,87,89,-1,88,89,90,-1,90,89,91,-1,90,91,92,-1,91,93,92,-1,92,93,94,-1,92,94,95,-1,95,94,96,-1,95,96,97,-1,97,96,98,-1,97,98,99,-1,99,98,100,-1,99,100,101,-1,100,102,101,-1,101,102,103,-1,101,103,104,-1,104,103,105,-1,104,105,106,-1,18,17,107,-1,107,17,108,-1,107,108,109,-1,109,108,110,-1,109,110,111,-1,111,110,112,-1,111,112,113,-1,113,112,106,-1,113,106,105,-1,65,64,70,-1,56,86,54,-1,54,86,88,-1,54,88,52,-1,52,88,90,-1,52,90,50,-1,65,70,67,-1,67,70,73,-1,67,73,62,-1,62,73,77,-1,62,77,60,-1,60,77,79,-1,60,79,58,-1,58,79,80,-1,58,80,56,-1,56,80,84,-1,56,84,86,-1,15,24,16,-1,16,24,27,-1,16,27,20,-1,20,27,30,-1,20,30,17,-1,17,30,32,-1,17,32,108,-1,108,32,34,-1,108,34,110,-1,110,34,36,-1,110,36,112,-1,112,36,38,-1,112,38,106,-1,106,38,40,-1,106,40,104,-1,104,40,42,-1,104,42,101,-1,97,48,95,-1,95,48,50,-1,95,50,92,-1,92,50,90,-1,101,42,99,-1,99,42,44,-1,99,44,97,-1,97,44,46,-1,97,46,48,-1,114,115,116,-1,116,115,117,-1,118,119,120,-1,120,119,114,-1,120,114,116,-1,121,119,122,-1,122,119,118,-1,123,124,125,-1,125,124,121,-1,125,121,122,-1,126,124,127,-1,127,124,123,-1,128,129,130,-1,130,129,126,-1,130,126,127,-1,131,129,132,-1,132,129,128,-1,133,134,135,-1,135,134,131,-1,135,131,132,-1,136,134,137,-1,137,134,133,-1,138,139,140,-1,140,139,136,-1,140,136,137,-1,141,139,142,-1,142,139,138,-1,117,115,143,-1,143,115,141,-1,143,141,142,-1,134,136,131,-1,131,136,139,-1,131,139,129,-1,115,114,141,-1,141,114,119,-1,141,119,121,-1,124,126,121,-1,121,126,129,-1,121,129,141,-1,141,129,139,-1,144,145,146,-1,146,145,147,-1,146,147,148,-1,148,147,149,-1,148,149,150,-1,150,149,151,-1,150,151,152,-1,152,151,153,-1,152,153,154,-1,154,153,155,-1,154,155,156,-1,156,155,157,-1,156,157,158,-1,158,157,159,-1,158,159,160,-1,160,159,161,-1,160,161,162,-1,162,161,163,-1,162,163,164,-1,164,163,165,-1,164,165,166,-1,166,165,167,-1,166,167,168,-1,168,167,169,-1,168,169,170,-1,170,169,171,-1,170,171,172,-1,172,171,173,-1,172,173,174,-1,174,173,175,-1,174,175,176,-1,176,175,177,-1,176,177,178,-1,178,177,144,-1,178,144,146,-1,152,154,179,-1,179,154,180,-1,152,179,181,-1,152,181,150,-1,150,181,182,-1,150,182,148,-1,148,182,183,-1,148,183,146,-1,146,183,184,-1,146,184,178,-1,178,184,185,-1,178,185,176,-1,176,185,186,-1,176,186,174,-1,174,186,187,-1,174,187,172,-1,172,187,188,-1,172,188,170,-1,170,188,189,-1,170,189,168,-1,168,189,190,-1,168,190,166,-1,166,190,191,-1,166,191,164,-1,164,191,192,-1,164,192,162,-1,162,192,193,-1,162,193,160,-1,160,193,194,-1,160,194,158,-1,156,158,195,-1,195,158,194,-1,154,156,180,-1,180,156,195,-1,159,157,196,-1,196,157,197,-1,157,155,197,-1,197,155,198,-1,155,153,198,-1,198,153,199,-1,145,200,201,-1,145,201,147,-1,147,201,202,-1,147,202,149,-1,149,202,203,-1,149,203,151,-1,151,203,199,-1,151,199,153,-1,173,204,205,-1,173,205,175,-1,175,205,206,-1,175,206,177,-1,177,206,207,-1,177,207,144,-1,144,207,200,-1,144,200,145,-1,165,208,209,-1,165,209,167,-1,167,209,210,-1,167,210,169,-1,169,210,211,-1,169,211,171,-1,171,211,204,-1,171,204,173,-1,159,196,212,-1,159,212,161,-1,161,212,213,-1,161,213,163,-1,163,213,208,-1,163,208,165,-1,
        ]
    }
}
Shape{
    appearance Appearance {
        material  Material {
            diffuseColor 1.0 1.0 1.0
            specularColor 0.5019607843137255 0.5019607843137255 0.5019607843137255
            ambientIntensity 1.0
            transparency 0.0
            shininess 0.5
        }
    }
    geometry IndexedFaceSet {
        ccw TRUE
        solid FALSE
        coord DEF co Coordinate {
            point [
                -0.0627 0.246 0.2416, -0.0626 0.246 0.2231, -0.0664 0.246 0.2416, -0.0661 0.246 0.223, -0.0692 0.246 0.2233, -0.0712 0.246 0.2241, -0.0728 0.246 0.2251, -0.0733 0.246 0.2255, -0.0745 0.246 0.227, -0.0753 0.246 0.2287, -0.0758 0.246 0.2309, -0.0759 0.246 0.2325, -0.0756 0.246 0.2352, -0.075 0.246 0.2371, -0.0741 0.246 0.2384, -0.0733 0.246 0.2392, -0.0695 0.246 0.2412, -0.0715 0.246 0.2404
            ]
        }
        coordIndex [
            0,1,2,-1,2,1,3,-1,2,3,4,-1,4,5,2,-1,2,5,6,-1,2,6,7,-1,7,8,2,-1,2,8,9,-1,2,9,10,-1,10,11,2,-1,2,11,12,-1,2,12,13,-1,13,14,2,-1,2,14,15,-1,2,15,16,-1,16,15,17,-1,
        ]
    }
}
Shape{
    appearance Appearance {
        material  Material {
            diffuseColor 0.0 0.0 0.0
            specularColor 0.0 0.0 0.0
            ambientIntensity 0.0
            transparency 0.0
            shininess 0.5
        }
    }
    geometry IndexedFaceSet {
        ccw TRUE
        solid FALSE
        coord DEF co Coordinate {
            point [
                -0.0872 0.2461 0.2294, -0.0908 0.2461 0.2394, -0.0897 0.2461 0.2442, -0.0804 0.2461 0.2202, -0.0838 0.2461 0.2202, -0.0862 0.2461 0.2267, -0.091 0.2461 0.2401, -0.0912 0.2461 0.2411, -0.093 0.2461 0.2441, -0.0913 0.2461 0.2411, -0.0915 0.2461 0.2401, -0.0917 0.2461 0.2394, -0.0952 0.2461 0.2294, -0.102 0.2461 0.22, -0.0986 0.2461 0.2201, -0.0962 0.2461 0.2267, -0.093 0.246 0.2441, -0.1019 0.246 0.2202, -0.102 0.246 0.22, -0.0897 0.246 0.2442, -0.0804 0.246 0.2202, -0.0804 0.246 0.2202, -0.087 0.246 0.2373, -0.0838 0.246 0.2202, -0.0862 0.246 0.2267, -0.0838 0.246 0.2202, -0.0962 0.246 0.2267, -0.087 0.246 0.2267, -0.0986 0.246 0.2201, -0.0985 0.246 0.2202, -0.0872 0.246 0.2294, -0.0952 0.246 0.2294, -0.0917 0.246 0.2394, -0.0913 0.246 0.2411, -0.0915 0.246 0.2401, -0.0912 0.246 0.2411, -0.0908 0.246 0.2394, -0.091 0.246 0.2401
            ]
        }
        coordIndex [
            0,1,2,-1,3,4,5,-1,1,6,2,-1,2,6,7,-1,2,7,8,-1,8,7,9,-1,8,9,10,-1,10,11,8,-1,8,11,12,-1,8,12,13,-1,14,13,15,-1,15,13,12,-1,15,12,5,-1,5,12,0,-1,5,0,3,-1,3,0,2,-1,16,8,17,-1,17,8,13,-1,17,13,18,-1,2,8,19,-1,19,8,16,-1,20,21,3,-1,20,3,22,-1,22,3,2,-1,22,2,19,-1,4,3,23,-1,23,3,21,-1,24,5,25,-1,25,5,4,-1,25,4,23,-1,26,15,27,-1,27,15,5,-1,27,5,24,-1,28,14,29,-1,29,14,15,-1,29,15,26,-1,13,14,18,-1,18,14,28,-1,0,12,30,-1,30,12,31,-1,12,11,31,-1,31,11,32,-1,9,33,34,-1,9,34,10,-1,10,34,32,-1,10,32,11,-1,9,7,33,-1,33,7,35,-1,1,36,37,-1,1,37,6,-1,6,37,35,-1,6,35,7,-1,1,0,36,-1,36,0,30,-1,
        ]
    }
}
Shape{
    appearance Appearance {
        material  Material {
            diffuseColor 1.0 1.0 1.0
            specularColor 0.5019607843137255 0.5019607843137255 0.5019607843137255
            ambientIntensity 1.0
            transparency 0.0
            shininess 0.5
        }
    }
    geometry IndexedFaceSet {
        ccw TRUE
        solid FALSE
        coord DEF co Coordinate {
            point [
                -0.0913 0.246 0.2411, -0.0912 0.246 0.2411, -0.0915 0.246 0.2401, -0.091 0.246 0.2401, -0.0917 0.246 0.2394, -0.0908 0.246 0.2394, -0.0952 0.246 0.2294, -0.0872 0.246 0.2294
            ]
        }
        coordIndex [
            0,1,2,-1,2,1,3,-1,2,3,4,-1,4,3,5,-1,4,5,6,-1,6,5,7,-1,
        ]
    }
}
Shape{
    appearance Appearance {
        material  Material {
            diffuseColor 0.0 0.0 0.0
            specularColor 0.0 0.0 0.0
            ambientIntensity 0.0
            transparency 0.0
            shininess 0.5
        }
    }
    geometry IndexedFaceSet {
        ccw TRUE
        solid FALSE
        coord DEF co Coordinate {
            point [
                -0.0183 0.2461 0.1853, -0.0182 0.2461 0.1825, -0.0183 0.246 0.1853, -0.0182 0.246 0.1825, -0.0084 0.2461 0.1853, -0.0084 0.246 0.1853, -0.0085 0.2461 0.1934, -0.0085 0.246 0.1934, -0.0171 0.2461 0.1934, -0.0171 0.246 0.1934, -0.0171 0.2461 0.1961, -0.0171 0.246 0.1961, -0.0085 0.2461 0.1962, -0.0085 0.246 0.1962, -0.0086 0.2461 0.2039, -0.0086 0.246 0.2039, -0.0179 0.2461 0.2038, -0.0179 0.246 0.2038, -0.0179 0.2461 0.2066, -0.0179 0.246 0.2066, -0.0055 0.2461 0.2066, -0.0055 0.246 0.2066, -0.0053 0.2461 0.1826, -0.0053 0.246 0.1826, -0.0279 0.2461 0.1905, -0.032 0.2461 0.191, -0.035 0.2461 0.1935, -0.0319 0.2461 0.1824, -0.0349 0.2461 0.1824, -0.0319 0.2461 0.1851, -0.032 0.2461 0.1933, -0.0254 0.2461 0.1898, -0.0262 0.2461 0.1901, -0.0318 0.2461 0.1851, -0.0303 0.2461 0.1856, -0.0313 0.2461 0.1843, -0.0295 0.2461 0.185, -0.032 0.2461 0.1894, -0.0318 0.2461 0.1879, -0.0313 0.2461 0.1868, -0.0306 0.2461 0.1859, -0.0263 0.2461 0.1847, -0.0266 0.2461 0.1821, -0.0274 0.2461 0.1845, -0.028 0.2461 0.1822, -0.0286 0.2461 0.1847, -0.0292 0.2461 0.1826, -0.0304 0.2461 0.1833, -0.0248 0.2461 0.1856, -0.0226 0.2461 0.1834, -0.0251 0.2461 0.1853, -0.0236 0.2461 0.1828, -0.0257 0.2461 0.1849, -0.0247 0.2461 0.1823, -0.0261 0.2461 0.1821, -0.0319 0.2461 0.1946, -0.0348 0.2461 0.1958, -0.0316 0.2461 0.1957, -0.0343 0.2461 0.1971, -0.0312 0.2461 0.1964, -0.0337 0.2461 0.1981, -0.0308 0.2461 0.1968, -0.0329 0.2461 0.1989, -0.0303 0.2461 0.1972, -0.0319 0.2461 0.1994, -0.0296 0.2461 0.1974, -0.0306 0.2461 0.1998, -0.0285 0.2461 0.1976, -0.0288 0.2461 0.2, -0.0269 0.2461 0.1974, -0.0258 0.2461 0.1997, -0.025 0.2461 0.1968, -0.0235 0.2461 0.1988, -0.0229 0.2461 0.1955, -0.0229 0.2461 0.1985, -0.0242 0.2461 0.1878, -0.0212 0.2461 0.1875, -0.0242 0.2461 0.1873, -0.0212 0.2461 0.1871, -0.0243 0.2461 0.1866, -0.0213 0.2461 0.1858, -0.0245 0.2461 0.1861, -0.0216 0.2461 0.1847, -0.0223 0.2461 0.1838, -0.0269 0.2461 0.1927, -0.0246 0.2461 0.1921, -0.025 0.2461 0.1895, -0.0233 0.2461 0.1915, -0.0247 0.2461 0.1891, -0.0224 0.2461 0.1907, -0.0244 0.2461 0.1885, -0.0218 0.2461 0.1898, -0.0214 0.2461 0.1888, -0.0288 0.246 0.2, -0.0258 0.246 0.1997, -0.0235 0.246 0.1988, -0.0229 0.246 0.1985, -0.0229 0.246 0.1955, -0.025 0.246 0.1968, -0.0269 0.246 0.1974, -0.0285 0.246 0.1976, -0.0296 0.246 0.1974, -0.0303 0.246 0.1972, -0.0308 0.246 0.1968, -0.0312 0.246 0.1964, -0.0316 0.246 0.1957, -0.0319 0.246 0.1946, -0.032 0.246 0.1933, -0.0269 0.246 0.1927, -0.0246 0.246 0.1921, -0.0233 0.246 0.1915, -0.0224 0.246 0.1907, -0.0218 0.246 0.1898, -0.0214 0.246 0.1888, -0.0212 0.246 0.1875, -0.0212 0.246 0.1871, -0.0213 0.246 0.1858, -0.0216 0.246 0.1847, -0.0223 0.246 0.1838, -0.0226 0.246 0.1834, -0.0236 0.246 0.1828, -0.0247 0.246 0.1823, -0.0261 0.246 0.1821, -0.0266 0.246 0.1821, -0.028 0.246 0.1822, -0.0292 0.246 0.1826, -0.0304 0.246 0.1833, -0.0313 0.246 0.1843, -0.0318 0.246 0.1851, -0.0319 0.246 0.1851, -0.0319 0.246 0.1824, -0.0349 0.246 0.1824, -0.035 0.246 0.1935, -0.0348 0.246 0.1958, -0.0343 0.246 0.1971, -0.0337 0.246 0.1981, -0.0329 0.246 0.1989, -0.0319 0.246 0.1994, -0.0306 0.246 0.1998, -0.025 0.246 0.1895, -0.0254 0.246 0.1898, -0.0262 0.246 0.1901, -0.0279 0.246 0.1905, -0.0242 0.246 0.1873, -0.0242 0.246 0.1878, -0.0244 0.246 0.1885, -0.0247 0.246 0.1891, -0.0251 0.246 0.1853, -0.0248 0.246 0.1856, -0.0245 0.246 0.1861, -0.0243 0.246 0.1866, -0.0274 0.246 0.1845, -0.0263 0.246 0.1847, -0.0257 0.246 0.1849, -0.0306 0.246 0.1859, -0.0303 0.246 0.1856, -0.0295 0.246 0.185, -0.0286 0.246 0.1847, -0.032 0.246 0.1894, -0.0318 0.246 0.1879, -0.0313 0.246 0.1868, -0.032 0.246 0.191
            ]
        }
        coordIndex [
            0,1,2,-1,2,1,3,-1,4,0,5,-1,5,0,2,-1,6,4,7,-1,7,4,5,-1,8,6,9,-1,9,6,7,-1,10,8,11,-1,11,8,9,-1,12,10,13,-1,13,10,11,-1,14,12,15,-1,15,12,13,-1,16,14,17,-1,17,14,15,-1,18,16,19,-1,19,16,17,-1,20,18,21,-1,21,18,19,-1,22,20,23,-1,23,20,21,-1,1,22,3,-1,3,22,23,-1,22,1,0,-1,0,4,22,-1,22,4,6,-1,22,6,20,-1,16,18,14,-1,14,18,20,-1,14,20,12,-1,12,20,6,-1,12,6,10,-1,10,6,8,-1,24,25,26,-1,27,28,29,-1,29,28,26,-1,30,31,32,-1,33,34,35,-1,35,34,36,-1,25,37,26,-1,26,37,38,-1,26,38,29,-1,29,38,39,-1,29,39,33,-1,33,39,40,-1,33,40,34,-1,41,42,43,-1,43,42,44,-1,43,44,45,-1,45,44,46,-1,45,46,36,-1,36,46,47,-1,36,47,35,-1,48,49,50,-1,50,49,51,-1,50,51,52,-1,52,51,53,-1,52,53,41,-1,41,53,54,-1,41,54,42,-1,32,24,30,-1,30,24,26,-1,30,26,55,-1,55,26,56,-1,55,56,57,-1,57,56,58,-1,57,58,59,-1,59,58,60,-1,59,60,61,-1,61,60,62,-1,61,62,63,-1,63,62,64,-1,63,64,65,-1,65,64,66,-1,65,66,67,-1,67,66,68,-1,67,68,69,-1,69,68,70,-1,69,70,71,-1,71,70,72,-1,71,72,73,-1,73,72,74,-1,75,76,77,-1,77,76,78,-1,77,78,79,-1,79,78,80,-1,79,80,81,-1,81,80,82,-1,81,82,48,-1,48,82,83,-1,48,83,49,-1,30,84,31,-1,31,84,85,-1,31,85,86,-1,86,85,87,-1,86,87,88,-1,88,87,89,-1,88,89,90,-1,90,89,91,-1,90,91,75,-1,75,91,92,-1,75,92,76,-1,68,93,94,-1,68,94,70,-1,70,94,95,-1,70,95,72,-1,72,95,96,-1,72,96,74,-1,73,74,97,-1,97,74,96,-1,73,97,98,-1,73,98,71,-1,71,98,99,-1,71,99,69,-1,69,99,100,-1,69,100,67,-1,67,100,101,-1,67,101,65,-1,65,101,102,-1,65,102,63,-1,63,102,103,-1,63,103,61,-1,61,103,104,-1,61,104,59,-1,59,104,105,-1,59,105,57,-1,57,105,106,-1,57,106,55,-1,55,106,107,-1,55,107,30,-1,84,30,108,-1,108,30,107,-1,84,108,109,-1,84,109,85,-1,85,109,110,-1,85,110,87,-1,87,110,111,-1,87,111,89,-1,89,111,112,-1,89,112,91,-1,91,112,113,-1,91,113,92,-1,92,113,114,-1,92,114,76,-1,76,114,115,-1,76,115,78,-1,78,115,116,-1,78,116,80,-1,80,116,117,-1,80,117,82,-1,82,117,118,-1,82,118,83,-1,83,118,119,-1,83,119,49,-1,49,119,120,-1,49,120,51,-1,51,120,121,-1,51,121,53,-1,53,121,122,-1,53,122,54,-1,54,122,123,-1,54,123,42,-1,42,123,124,-1,42,124,44,-1,44,124,125,-1,44,125,46,-1,46,125,126,-1,46,126,47,-1,47,126,127,-1,47,127,35,-1,35,127,128,-1,35,128,33,-1,29,33,129,-1,129,33,128,-1,27,29,130,-1,130,29,129,-1,28,27,131,-1,131,27,130,-1,26,28,132,-1,132,28,131,-1,26,132,133,-1,26,133,56,-1,56,133,134,-1,56,134,58,-1,58,134,135,-1,58,135,60,-1,60,135,136,-1,60,136,62,-1,62,136,137,-1,62,137,64,-1,64,137,138,-1,64,138,66,-1,66,138,93,-1,66,93,68,-1,86,139,140,-1,86,140,31,-1,31,140,141,-1,31,141,32,-1,32,141,142,-1,32,142,24,-1,77,143,144,-1,77,144,75,-1,75,144,145,-1,75,145,90,-1,90,145,146,-1,90,146,88,-1,88,146,139,-1,88,139,86,-1,50,147,148,-1,50,148,48,-1,48,148,149,-1,48,149,81,-1,81,149,150,-1,81,150,79,-1,79,150,143,-1,79,143,77,-1,43,151,152,-1,43,152,41,-1,41,152,153,-1,41,153,52,-1,52,153,147,-1,52,147,50,-1,40,154,155,-1,40,155,34,-1,34,155,156,-1,34,156,36,-1,36,156,157,-1,36,157,45,-1,45,157,151,-1,45,151,43,-1,37,158,159,-1,37,159,38,-1,38,159,160,-1,38,160,39,-1,39,160,154,-1,39,154,40,-1,37,25,158,-1,158,25,161,-1,25,24,161,-1,161,24,142,-1,
        ]
    }
}
Shape{
    appearance Appearance {
        material  Material {
            diffuseColor 1.0 1.0 1.0
            specularColor 0.5019607843137255 0.5019607843137255 0.5019607843137255
            ambientIntensity 1.0
            transparency 0.0
            shininess 0.5
        }
    }
    geometry IndexedFaceSet {
        ccw TRUE
        solid FALSE
        coord DEF co Coordinate {
            point [
                -0.0303 0.246 0.1856, -0.0306 0.246 0.1859, -0.0279 0.246 0.1905, -0.0313 0.246 0.1868, -0.0286 0.246 0.1847, -0.0262 0.246 0.1901, -0.0254 0.246 0.1898, -0.0295 0.246 0.185, -0.0318 0.246 0.1879, -0.032 0.246 0.1894, -0.032 0.246 0.191, -0.0244 0.246 0.1885, -0.0242 0.246 0.1878, -0.0242 0.246 0.1873, -0.0243 0.246 0.1866, -0.0257 0.246 0.1849, -0.0263 0.246 0.1847, -0.0251 0.246 0.1853, -0.0274 0.246 0.1845, -0.025 0.246 0.1895, -0.0247 0.246 0.1891, -0.0245 0.246 0.1861, -0.0248 0.246 0.1856
            ]
        }
        coordIndex [
            0,1,2,-1,2,1,3,-1,4,5,6,-1,5,4,2,-1,2,4,7,-1,2,7,0,-1,3,8,2,-1,2,8,9,-1,2,9,10,-1,11,12,4,-1,4,12,13,-1,4,13,14,-1,15,16,17,-1,17,16,18,-1,17,18,4,-1,6,19,4,-1,4,19,20,-1,4,20,11,-1,14,21,4,-1,4,21,22,-1,4,22,17,-1,
        ]
    }
}
Shape{
    appearance Appearance {
        material  Material {
            diffuseColor 0.0 0.0 0.0
            specularColor 0.0 0.0 0.0
            ambientIntensity 0.0
            transparency 0.0
            shininess 0.5
        }
    }
    geometry IndexedFaceSet {
        ccw TRUE
        solid FALSE
        coord DEF co Coordinate {
            point [
                -0.039 0.246 0.1861, -0.039 0.2461 0.1861, -0.0401 0.2461 0.1854, -0.044 0.2461 0.1844, -0.044 0.246 0.1844, -0.042 0.246 0.1847, -0.042 0.2461 0.1847, -0.0405 0.246 0.1852, -0.0401 0.246 0.1854, -0.039 0.2461 0.183, -0.039 0.246 0.183, -0.0405 0.246 0.1824, -0.0411 0.2461 0.1822, -0.0411 0.246 0.1822, -0.0436 0.2461 0.1819, -0.0436 0.246 0.182, -0.0436 0.246 0.1819, -0.0437 0.246 0.182, -0.0464 0.2461 0.1823, -0.0464 0.246 0.1823, -0.048 0.246 0.1829, -0.048 0.2461 0.1829, -0.0486 0.246 0.1833, -0.0486 0.2461 0.1833, -0.0496 0.246 0.1841, -0.0496 0.2461 0.1841, -0.0501 0.246 0.1849, -0.0501 0.2461 0.1849, -0.0505 0.246 0.1858, -0.0505 0.2461 0.1858, -0.0506 0.246 0.187, -0.0506 0.2461 0.187, -0.0505 0.246 0.1882, -0.0505 0.2461 0.1882, -0.0501 0.246 0.189, -0.0501 0.2461 0.189, -0.0496 0.246 0.1898, -0.0496 0.2461 0.1898, -0.0489 0.246 0.1905, -0.0489 0.2461 0.1905, -0.0469 0.246 0.1916, -0.0469 0.2461 0.1916, -0.0458 0.246 0.1921, -0.0458 0.2461 0.1921, -0.0439 0.246 0.1929, -0.0439 0.2461 0.1929, -0.0428 0.246 0.1936, -0.0428 0.2461 0.1936, -0.0426 0.246 0.1939, -0.0426 0.2461 0.1939, -0.0423 0.246 0.1943, -0.0423 0.2461 0.1943, -0.0422 0.246 0.1948, -0.0422 0.2461 0.1948, -0.0422 0.246 0.1952, -0.0422 0.2461 0.1952, -0.0423 0.246 0.1956, -0.0423 0.2461 0.1956, -0.0424 0.246 0.196, -0.0424 0.2461 0.196, -0.0427 0.246 0.1964, -0.0427 0.2461 0.1964, -0.0431 0.246 0.1968, -0.0431 0.2461 0.1968, -0.0438 0.246 0.1972, -0.0438 0.2461 0.1972, -0.0446 0.246 0.1974, -0.0446 0.2461 0.1974, -0.0455 0.246 0.1974, -0.0455 0.2461 0.1974, -0.0476 0.246 0.1972, -0.0476 0.2461 0.1972, -0.0493 0.246 0.1965, -0.0493 0.2461 0.1965, -0.0498 0.246 0.1962, -0.0498 0.2461 0.1962, -0.0499 0.2461 0.1991, -0.0499 0.246 0.1991, -0.0479 0.246 0.1997, -0.0479 0.2461 0.1997, -0.0458 0.246 0.1999, -0.0458 0.2461 0.1999, -0.0434 0.246 0.1996, -0.0434 0.2461 0.1996, -0.0418 0.246 0.199, -0.0418 0.2461 0.199, -0.041 0.246 0.1986, -0.041 0.2461 0.1986, -0.0401 0.2461 0.1977, -0.0405 0.246 0.1981, -0.0401 0.246 0.1977, -0.0396 0.246 0.1969, -0.0396 0.2461 0.1969, -0.0392 0.246 0.1959, -0.0392 0.2461 0.1959, -0.0391 0.246 0.1949, -0.0391 0.2461 0.1949, -0.0392 0.246 0.1937, -0.0392 0.2461 0.1937, -0.0396 0.246 0.1928, -0.0396 0.2461 0.1928, -0.0399 0.246 0.1922, -0.0399 0.2461 0.1922, -0.0436 0.246 0.1899, -0.0436 0.2461 0.1899, -0.0418 0.2461 0.1907, -0.0404 0.246 0.1917, -0.0404 0.2461 0.1917, -0.0405 0.246 0.1916, -0.0418 0.246 0.1907, -0.0456 0.246 0.1891, -0.0456 0.2461 0.1891, -0.0468 0.246 0.1883, -0.0468 0.2461 0.1883, -0.0471 0.246 0.1879, -0.0471 0.2461 0.1879, -0.0474 0.246 0.1875, -0.0474 0.2461 0.1875, -0.0475 0.246 0.1871, -0.0475 0.2461 0.1871, -0.0475 0.246 0.1867, -0.0475 0.2461 0.1867, -0.0475 0.246 0.1861, -0.0475 0.2461 0.1861, -0.0473 0.246 0.1857, -0.0473 0.2461 0.1857, -0.047 0.246 0.1853, -0.047 0.2461 0.1853, -0.0467 0.246 0.185, -0.0467 0.2461 0.185, -0.0464 0.246 0.1848, -0.0464 0.2461 0.1848, -0.0456 0.246 0.1846, -0.0456 0.2461 0.1846, -0.0441 0.246 0.1844, -0.0441 0.2461 0.1844, -0.0656 0.2461 0.1994, -0.0687 0.2461 0.1993, -0.0656 0.246 0.1994, -0.0687 0.246 0.1993, -0.0608 0.2461 0.1865, -0.0608 0.246 0.1865, -0.0606 0.246 0.1857, -0.0606 0.2461 0.1857, -0.0605 0.246 0.1851, -0.0605 0.2461 0.1851, -0.0604 0.2461 0.1851, -0.0604 0.246 0.1851, -0.06 0.2461 0.1865, -0.06 0.246 0.1865, -0.0556 0.246 0.1994, -0.0556 0.2461 0.1994, -0.0572 0.246 0.1947, -0.0523 0.2461 0.1994, -0.0523 0.246 0.1994, -0.0589 0.246 0.1823, -0.0589 0.2461 0.1823, -0.0572 0.246 0.1865, -0.0575 0.246 0.1792, -0.0575 0.2461 0.1792, -0.0587 0.246 0.182, -0.0572 0.246 0.1787, -0.0569 0.2461 0.178, -0.0569 0.246 0.178, -0.0568 0.246 0.178, -0.0563 0.2461 0.1774, -0.0563 0.246 0.1774, -0.056 0.246 0.1772, -0.056 0.2461 0.1772, -0.0554 0.246 0.1769, -0.0554 0.2461 0.1769, -0.0547 0.246 0.1768, -0.0547 0.2461 0.1768, -0.0544 0.246 0.1768, -0.0544 0.2461 0.1768, -0.0533 0.246 0.1769, -0.0533 0.2461 0.1769, -0.0527 0.246 0.1771, -0.0527 0.2461 0.1771, -0.0527 0.2461 0.1745, -0.0527 0.246 0.1745, -0.0539 0.246 0.1742, -0.0539 0.2461 0.1742, -0.0546 0.246 0.1742, -0.0546 0.2461 0.1742, -0.0559 0.246 0.1743, -0.0559 0.2461 0.1743, -0.0571 0.246 0.1748, -0.0571 0.2461 0.1748, -0.0572 0.246 0.1749, -0.0581 0.2461 0.1755, -0.0608 0.246 0.1796, -0.0608 0.2461 0.1796, -0.0599 0.246 0.178, -0.0594 0.2461 0.1769, -0.0594 0.246 0.1769, -0.0583 0.2461 0.1756, -0.0583 0.246 0.1756, -0.0581 0.246 0.1755, -0.0617 0.246 0.182, -0.0848 0.2461 0.1848, -0.0848 0.2461 0.1821, -0.0848 0.246 0.1848, -0.0848 0.246 0.1821, -0.075 0.246 0.1849, -0.075 0.2461 0.1849, -0.0798 0.246 0.1848, -0.075 0.2461 0.193, -0.075 0.246 0.193, -0.0836 0.246 0.1929, -0.0836 0.2461 0.1929, -0.0798 0.246 0.1929, -0.0836 0.2461 0.1956, -0.0836 0.246 0.1956, -0.075 0.246 0.1957, -0.075 0.2461 0.1957, -0.0798 0.246 0.1957, -0.0751 0.2461 0.2034, -0.0751 0.246 0.2034, -0.0844 0.246 0.2033, -0.0844 0.2461 0.2033, -0.0798 0.246 0.2034, -0.0844 0.2461 0.2061, -0.0844 0.246 0.2061, -0.072 0.246 0.2062, -0.072 0.2461 0.2062, -0.0798 0.246 0.2061, -0.0718 0.2461 0.1822, -0.0718 0.246 0.1822, -0.0798 0.246 0.1821, -0.1043 0.2461 0.1887, -0.1031 0.2461 0.1872, -0.1053 0.2461 0.1853, -0.1026 0.2461 0.1868, -0.1028 0.2461 0.1835, -0.101 0.2461 0.1857, -0.1 0.2461 0.1825, -0.099 0.2461 0.185, -0.0959 0.2461 0.182, -0.0959 0.2461 0.1847, -0.0893 0.2461 0.182, -0.0924 0.2461 0.1847, -0.0895 0.2461 0.2061, -0.0926 0.2461 0.2033, -0.0963 0.2461 0.206, -0.0962 0.2461 0.2032, -0.1 0.2461 0.2056, -0.0993 0.2461 0.2029, -0.1029 0.2461 0.2045, -0.1014 0.2461 0.2021, -0.1054 0.2461 0.2028, -0.1031 0.2461 0.2009, -0.1062 0.2461 0.2019, -0.1039 0.2461 0.2001, -0.1077 0.2461 0.1998, -0.1048 0.2461 0.1987, -0.1086 0.2461 0.1976, -0.1054 0.2461 0.1969, -0.109 0.2461 0.1942, -0.1057 0.2461 0.1941, -0.1089 0.2461 0.1927, -0.1056 0.2461 0.1926, -0.1083 0.2461 0.1899, -0.1051 0.2461 0.1904, -0.1071 0.2461 0.1874, -0.0959 0.246 0.182, -0.0893 0.246 0.182, -0.1 0.246 0.1825, -0.1028 0.246 0.1835, -0.1053 0.246 0.1853, -0.1071 0.246 0.1874, -0.1083 0.246 0.1899, -0.1089 0.246 0.1927, -0.109 0.246 0.1942, -0.1086 0.246 0.1976, -0.1077 0.246 0.1998, -0.1062 0.246 0.2019, -0.1054 0.246 0.2028, -0.1029 0.246 0.2045, -0.1 0.246 0.2056, -0.0963 0.246 0.206, -0.0895 0.246 0.2061, -0.0962 0.246 0.2032, -0.0926 0.246 0.2033, -0.0924 0.246 0.1847, -0.0959 0.246 0.1847, -0.1031 0.246 0.1872, -0.1026 0.246 0.1868, -0.101 0.246 0.1857, -0.099 0.246 0.185, -0.1057 0.246 0.1941, -0.1056 0.246 0.1926, -0.1051 0.246 0.1904, -0.1043 0.246 0.1887, -0.1031 0.246 0.2009, -0.1039 0.246 0.2001, -0.1048 0.246 0.1987, -0.1054 0.246 0.1969, -0.0993 0.246 0.2029, -0.1014 0.246 0.2021
            ]
        }
        coordIndex [
            0,1,2,-1,3,4,5,-1,3,5,6,-1,6,5,7,-1,6,7,2,-1,2,7,8,-1,2,8,0,-1,9,1,10,-1,10,1,0,-1,9,10,11,-1,9,11,12,-1,12,11,13,-1,12,13,14,-1,14,13,15,-1,14,15,16,-1,14,16,17,-1,14,17,18,-1,17,19,18,-1,18,19,20,-1,18,20,21,-1,21,20,22,-1,21,22,23,-1,23,22,24,-1,23,24,25,-1,25,24,26,-1,25,26,27,-1,27,26,28,-1,27,28,29,-1,29,28,30,-1,29,30,31,-1,31,30,32,-1,31,32,33,-1,33,32,34,-1,33,34,35,-1,35,34,36,-1,35,36,37,-1,37,36,38,-1,37,38,39,-1,39,38,40,-1,39,40,41,-1,41,40,42,-1,41,42,43,-1,43,42,44,-1,43,44,45,-1,45,44,46,-1,45,46,47,-1,47,46,48,-1,47,48,49,-1,49,48,50,-1,49,50,51,-1,51,50,52,-1,51,52,53,-1,53,52,54,-1,53,54,55,-1,55,54,56,-1,55,56,57,-1,57,56,58,-1,57,58,59,-1,59,58,60,-1,59,60,61,-1,61,60,62,-1,61,62,63,-1,63,62,64,-1,63,64,65,-1,65,64,66,-1,65,66,67,-1,67,66,68,-1,67,68,69,-1,69,68,70,-1,69,70,71,-1,71,70,72,-1,71,72,73,-1,73,72,74,-1,73,74,75,-1,76,75,77,-1,77,75,74,-1,76,77,78,-1,76,78,79,-1,79,78,80,-1,79,80,81,-1,81,80,82,-1,81,82,83,-1,83,82,84,-1,83,84,85,-1,85,84,86,-1,85,86,87,-1,88,87,89,-1,89,87,86,-1,89,90,88,-1,88,90,91,-1,88,91,92,-1,92,91,93,-1,92,93,94,-1,94,93,95,-1,94,95,96,-1,96,95,97,-1,96,97,98,-1,98,97,99,-1,98,99,100,-1,100,99,101,-1,100,101,102,-1,103,104,105,-1,102,101,106,-1,102,106,107,-1,107,106,108,-1,107,108,105,-1,105,108,109,-1,105,109,103,-1,104,103,110,-1,104,110,111,-1,111,110,112,-1,111,112,113,-1,113,112,114,-1,113,114,115,-1,115,114,116,-1,115,116,117,-1,117,116,118,-1,117,118,119,-1,119,118,120,-1,119,120,121,-1,121,120,122,-1,121,122,123,-1,123,122,124,-1,123,124,125,-1,125,124,126,-1,125,126,127,-1,127,126,128,-1,127,128,129,-1,129,128,130,-1,129,130,131,-1,131,130,132,-1,131,132,133,-1,133,132,134,-1,133,134,135,-1,135,134,4,-1,135,4,3,-1,59,61,87,-1,87,61,85,-1,85,61,63,-1,85,63,83,-1,125,25,27,-1,111,43,104,-1,104,43,45,-1,125,27,123,-1,123,27,29,-1,123,29,121,-1,121,29,31,-1,121,31,119,-1,119,31,33,-1,119,33,117,-1,117,33,35,-1,117,35,115,-1,115,35,37,-1,115,37,113,-1,113,37,39,-1,113,39,111,-1,111,39,41,-1,111,41,43,-1,25,125,23,-1,23,125,127,-1,23,127,21,-1,14,3,12,-1,12,3,6,-1,12,6,9,-1,9,6,2,-1,9,2,1,-1,63,65,83,-1,83,65,67,-1,83,67,81,-1,81,67,69,-1,81,69,79,-1,79,69,71,-1,79,71,76,-1,76,71,73,-1,76,73,75,-1,127,129,21,-1,21,129,131,-1,21,131,18,-1,18,131,133,-1,18,133,14,-1,14,133,135,-1,14,135,3,-1,87,88,59,-1,59,88,92,-1,59,92,57,-1,57,92,94,-1,57,94,55,-1,55,94,96,-1,55,96,53,-1,53,96,98,-1,53,98,51,-1,51,98,100,-1,51,100,49,-1,49,100,102,-1,49,102,47,-1,47,102,107,-1,47,107,45,-1,45,107,105,-1,45,105,104,-1,136,137,138,-1,138,137,139,-1,140,136,141,-1,141,136,138,-1,140,141,142,-1,140,142,143,-1,143,142,144,-1,143,144,145,-1,146,145,147,-1,147,145,144,-1,148,146,149,-1,149,146,147,-1,150,151,152,-1,152,151,148,-1,152,148,149,-1,153,151,154,-1,154,151,150,-1,155,156,157,-1,157,156,153,-1,157,153,154,-1,158,159,160,-1,160,159,156,-1,160,156,155,-1,159,158,161,-1,159,161,162,-1,161,163,162,-1,162,163,164,-1,162,164,165,-1,164,166,165,-1,165,166,167,-1,165,167,168,-1,168,167,169,-1,168,169,170,-1,170,169,171,-1,170,171,172,-1,172,171,173,-1,172,173,174,-1,174,173,175,-1,174,175,176,-1,176,175,177,-1,176,177,178,-1,179,178,180,-1,180,178,177,-1,179,180,181,-1,179,181,182,-1,182,181,183,-1,182,183,184,-1,184,183,185,-1,184,185,186,-1,186,185,187,-1,186,187,188,-1,188,187,189,-1,188,189,190,-1,191,192,193,-1,193,192,194,-1,193,194,195,-1,195,194,196,-1,195,196,197,-1,197,196,190,-1,197,190,198,-1,198,190,189,-1,139,137,199,-1,199,137,192,-1,199,192,191,-1,143,145,192,-1,176,178,179,-1,137,136,192,-1,192,136,140,-1,192,140,143,-1,151,153,148,-1,148,153,156,-1,148,156,146,-1,145,146,192,-1,192,146,156,-1,192,156,194,-1,176,179,174,-1,174,179,182,-1,174,182,172,-1,172,182,184,-1,172,184,170,-1,170,184,186,-1,170,186,168,-1,168,186,188,-1,168,188,165,-1,156,159,194,-1,194,159,162,-1,194,162,196,-1,196,162,165,-1,196,165,190,-1,190,165,188,-1,200,201,202,-1,202,201,203,-1,204,205,206,-1,206,205,200,-1,206,200,202,-1,207,205,208,-1,208,205,204,-1,209,210,211,-1,211,210,207,-1,211,207,208,-1,212,210,213,-1,213,210,209,-1,214,215,216,-1,216,215,212,-1,216,212,213,-1,217,215,218,-1,218,215,214,-1,219,220,221,-1,221,220,217,-1,221,217,218,-1,222,220,223,-1,223,220,219,-1,224,225,226,-1,226,225,222,-1,226,222,223,-1,227,225,228,-1,228,225,224,-1,203,201,229,-1,229,201,227,-1,229,227,228,-1,210,212,207,-1,207,212,215,-1,201,200,227,-1,227,200,205,-1,220,222,217,-1,217,222,225,-1,217,225,215,-1,215,225,227,-1,215,227,207,-1,207,227,205,-1,230,231,232,-1,232,231,233,-1,232,233,234,-1,234,233,235,-1,234,235,236,-1,236,235,237,-1,236,237,238,-1,238,237,239,-1,238,239,240,-1,240,239,241,-1,240,241,242,-1,242,241,243,-1,242,243,244,-1,244,243,245,-1,244,245,246,-1,246,245,247,-1,246,247,248,-1,248,247,249,-1,248,249,250,-1,250,249,251,-1,250,251,252,-1,252,251,253,-1,252,253,254,-1,254,253,255,-1,254,255,256,-1,256,255,257,-1,256,257,258,-1,258,257,259,-1,258,259,260,-1,260,259,261,-1,260,261,262,-1,262,261,263,-1,262,263,264,-1,264,263,230,-1,264,230,232,-1,238,240,265,-1,265,240,266,-1,238,265,267,-1,238,267,236,-1,236,267,268,-1,236,268,234,-1,234,268,269,-1,234,269,232,-1,232,269,270,-1,232,270,264,-1,264,270,271,-1,264,271,262,-1,262,271,272,-1,262,272,260,-1,260,272,273,-1,260,273,258,-1,258,273,274,-1,258,274,256,-1,256,274,275,-1,256,275,254,-1,254,275,276,-1,254,276,252,-1,252,276,277,-1,252,277,250,-1,250,277,278,-1,250,278,248,-1,248,278,279,-1,248,279,246,-1,246,279,280,-1,246,280,244,-1,242,244,281,-1,281,244,280,-1,240,242,266,-1,266,242,281,-1,245,243,282,-1,282,243,283,-1,243,241,283,-1,283,241,284,-1,241,239,284,-1,284,239,285,-1,231,286,287,-1,231,287,233,-1,233,287,288,-1,233,288,235,-1,235,288,289,-1,235,289,237,-1,237,289,285,-1,237,285,239,-1,259,290,291,-1,259,291,261,-1,261,291,292,-1,261,292,263,-1,263,292,293,-1,263,293,230,-1,230,293,286,-1,230,286,231,-1,251,294,295,-1,251,295,253,-1,253,295,296,-1,253,296,255,-1,255,296,297,-1,255,297,257,-1,257,297,290,-1,257,290,259,-1,245,282,298,-1,245,298,247,-1,247,298,299,-1,247,299,249,-1,249,299,294,-1,249,294,251,-1,
        ]
    }
}
Shape{
    appearance Appearance {
        material  Material {
            diffuseColor 1.0 1.0 1.0
            specularColor 0.5019607843137255 0.5019607843137255 0.5019607843137255
            ambientIntensity 1.0
            transparency 0.0
            shininess 0.5
        }
    }
    geometry IndexedFaceSet {
        ccw TRUE
        solid FALSE
        coord DEF co Coordinate {
            point [
                -0.0926 0.246 0.2033, -0.0924 0.246 0.1847, -0.0962 0.246 0.2032, -0.0959 0.246 0.1847, -0.099 0.246 0.185, -0.101 0.246 0.1857, -0.1026 0.246 0.1868, -0.1031 0.246 0.1872, -0.1043 0.246 0.1887, -0.1051 0.246 0.1904, -0.1056 0.246 0.1926, -0.1057 0.246 0.1941, -0.1054 0.246 0.1969, -0.1048 0.246 0.1987, -0.1039 0.246 0.2001, -0.1031 0.246 0.2009, -0.0993 0.246 0.2029, -0.1014 0.246 0.2021
            ]
        }
        coordIndex [
            0,1,2,-1,2,1,3,-1,2,3,4,-1,4,5,2,-1,2,5,6,-1,2,6,7,-1,7,8,2,-1,2,8,9,-1,2,9,10,-1,10,11,2,-1,2,11,12,-1,2,12,13,-1,13,14,2,-1,2,14,15,-1,2,15,16,-1,16,15,17,-1,
        ]
    }
}
Shape{
    appearance Appearance {
        material  Material {
            diffuseColor 0.0 0.0 0.0
            specularColor 0.0 0.0 0.0
            ambientIntensity 0.0
            transparency 0.0
            shininess 0.5
        }
    }
    geometry IndexedFaceSet {
        ccw TRUE
        solid FALSE
        coord DEF co Coordinate {
            point [
                -0.117 0.2461 0.1911, -0.1206 0.2461 0.2011, -0.1195 0.2461 0.2058, -0.1102 0.2461 0.1819, -0.1136 0.2461 0.1819, -0.116 0.2461 0.1884, -0.1209 0.2461 0.2018, -0.121 0.2461 0.2028, -0.1228 0.2461 0.2058, -0.1211 0.2461 0.2028, -0.1213 0.2461 0.2017, -0.1215 0.2461 0.2011, -0.125 0.2461 0.1911, -0.1318 0.2461 0.1817, -0.1284 0.2461 0.1818, -0.126 0.2461 0.1883, -0.1228 0.246 0.2058, -0.1317 0.246 0.182, -0.1318 0.246 0.1817, -0.1195 0.246 0.2058, -0.1102 0.246 0.182, -0.1102 0.246 0.1819, -0.1136 0.246 0.1819, -0.116 0.246 0.1884, -0.1137 0.246 0.182, -0.126 0.246 0.1883, -0.1284 0.246 0.1818, -0.1283 0.246 0.182, -0.117 0.246 0.1911, -0.125 0.246 0.1911, -0.1215 0.246 0.2011, -0.1211 0.246 0.2028, -0.1213 0.246 0.2017, -0.121 0.246 0.2028, -0.1206 0.246 0.2011, -0.1209 0.246 0.2018
            ]
        }
        coordIndex [
            0,1,2,-1,3,4,5,-1,1,6,2,-1,2,6,7,-1,2,7,8,-1,8,7,9,-1,8,9,10,-1,10,11,8,-1,8,11,12,-1,8,12,13,-1,14,13,15,-1,15,13,12,-1,15,12,5,-1,5,12,0,-1,5,0,3,-1,3,0,2,-1,16,8,17,-1,17,8,13,-1,17,13,18,-1,2,8,19,-1,19,8,16,-1,2,19,3,-1,3,19,20,-1,3,20,21,-1,4,3,22,-1,22,3,21,-1,23,5,24,-1,24,5,4,-1,24,4,22,-1,15,5,25,-1,25,5,23,-1,26,14,27,-1,27,14,15,-1,27,15,25,-1,13,14,18,-1,18,14,26,-1,0,12,28,-1,28,12,29,-1,12,11,29,-1,29,11,30,-1,9,31,32,-1,9,32,10,-1,10,32,30,-1,10,30,11,-1,9,7,31,-1,31,7,33,-1,1,34,35,-1,1,35,6,-1,6,35,33,-1,6,33,7,-1,1,0,34,-1,34,0,28,-1,
        ]
    }
}
Shape{
    appearance Appearance {
        material  Material {
            diffuseColor 1.0 1.0 1.0
            specularColor 0.5019607843137255 0.5019607843137255 0.5019607843137255
            ambientIntensity 1.0
            transparency 0.0
            shininess 0.5
        }
    }
    geometry IndexedFaceSet {
        ccw TRUE
        solid FALSE
        coord DEF co Coordinate {
            point [
                -0.1211 0.246 0.2028, -0.121 0.246 0.2028, -0.1213 0.246 0.2017, -0.1209 0.246 0.2018, -0.1215 0.246 0.2011, -0.1206 0.246 0.2011, -0.125 0.246 0.1911, -0.117 0.246 0.1911
            ]
        }
        coordIndex [
            0,1,2,-1,2,1,3,-1,2,3,4,-1,4,3,5,-1,4,5,6,-1,6,5,7,-1,
        ]
    }
}
Shape{
    appearance Appearance {
        material  Material {
            diffuseColor 0.0 0.0 0.0
            specularColor 0.0 0.0 0.0
            ambientIntensity 0.0
            transparency 0.0
            shininess 0.5
        }
    }
    geometry IndexedFaceSet {
        ccw TRUE
        solid FALSE
        coord DEF co Coordinate {
            point [
                0.1008 0.2461 0.18, 0.0983 0.2461 0.1768, 0.1022 0.2461 0.1951, 0.0451 0.2461 0.2031, 0.0503 0.2461 0.2121, 0.0733 0.2461 0.2003, 0.0852 0.2461 0.1954, 0.0836 0.2461 0.1949, 0.1049 0.2461 0.2248, 0.1011 0.2461 0.2268, 0.102 0.2461 0.2373, 0.0952 0.2461 0.2381, 0.0822 0.2461 0.194, 0.081 0.2461 0.1928, 0.0691 0.2461 0.1906, 0.0913 0.2461 0.2377, 0.0861 0.2461 0.2252, 0.0838 0.2461 0.2301, 0.1059 0.2461 0.1974, 0.1047 0.2461 0.1843, 0.1025 0.2461 0.1836, 0.0802 0.2461 0.1914, 0.0798 0.2461 0.1899, 0.0691 0.2461 0.1889, 0.0797 0.2461 0.1882, 0.0879 0.2461 0.1953, 0.0901 0.2461 0.2058, 0.0894 0.2461 0.1947, 0.0939 0.2461 0.2044, 0.0908 0.2461 0.1938, 0.0974 0.2461 0.202, 0.0916 0.2461 0.1929, 0.1003 0.2461 0.1988, 0.0925 0.2461 0.1915, 0.093 0.2461 0.1899, 0.0799 0.2461 0.2051, 0.084 0.2461 0.2061, 0.0861 0.2461 0.2062, 0.0878 0.2461 0.2418, 0.0801 0.2461 0.2347, 0.0838 0.2461 0.2452, 0.0754 0.2461 0.2383, 0.0796 0.2461 0.2477, 0.0969 0.2461 0.2278, 0.0952 0.2461 0.2278, 0.0933 0.2461 0.238, 0.0912 0.2461 0.2273, 0.0874 0.2461 0.2259, 0.0909 0.2461 0.1839, 0.0895 0.2461 0.183, 0.0949 0.2461 0.1743, 0.088 0.2461 0.1824, 0.0469 0.2461 0.183, 0.0463 0.2461 0.1829, 0.0448 0.2461 0.1933, 0.0717 0.2461 0.2507, 0.0698 0.2461 0.2406, 0.0632 0.2461 0.2517, 0.0401 0.2461 0.2426, 0.0455 0.2461 0.2336, 0.0345 0.2461 0.2361, 0.0421 0.2461 0.2287, 0.0309 0.2461 0.2291, 0.0399 0.2461 0.2229, 0.0394 0.2461 0.2199, 0.1118 0.2461 0.215, 0.123 0.2461 0.2129, 0.1123 0.2461 0.2109, 0.1231 0.2461 0.2106, 0.1122 0.2461 0.2083, 0.1223 0.2461 0.2039, 0.111 0.2461 0.2041, 0.1199 0.2461 0.1975, 0.109 0.2461 0.2006, 0.1161 0.2461 0.1919, 0.1108 0.2461 0.1874, 0.0863 0.2461 0.1955, 0.0763 0.2461 0.2031, 0.038 0.2461 0.2199, 0.0348 0.2461 0.2195, 0.0296 0.2461 0.2286, 0.0318 0.2461 0.2183, 0.0246 0.2461 0.226, 0.0291 0.2461 0.2165, 0.0201 0.2461 0.2219, 0.0272 0.2461 0.2142, 0.0167 0.2461 0.217, 0.0256 0.2461 0.2113, 0.0148 0.2461 0.2117, 0.0248 0.2461 0.208, 0.0142 0.2461 0.2066, 0.0248 0.2461 0.2065, 0.0372 0.2461 0.1933, 0.0362 0.2461 0.1828, 0.0341 0.2461 0.1938, 0.031 0.2461 0.1838, 0.0311 0.2461 0.1952, 0.0257 0.2461 0.1862, 0.0285 0.2461 0.1972, 0.0212 0.2461 0.1898, 0.0283 0.2461 0.1975, 0.0206 0.2461 0.1904, 0.0264 0.2461 0.2001, 0.0175 0.2461 0.1946, 0.0252 0.2461 0.2032, 0.0152 0.2461 0.2, 0.0142 0.2461 0.2056, 0.1084 0.2461 0.2349, 0.1138 0.2461 0.2311, 0.1079 0.2461 0.2222, 0.1149 0.2461 0.23, 0.1103 0.2461 0.2188, 0.1185 0.2461 0.2256, 0.1215 0.2461 0.2196, 0.092 0.2461 0.1852, 0.0927 0.2461 0.1866, 0.093 0.2461 0.1882, 0.0641 0.2461 0.2414, 0.0631 0.2461 0.2414, 0.0562 0.2461 0.2509, 0.0579 0.2461 0.2408, 0.0476 0.2461 0.2478, 0.0525 0.2461 0.2389, 0.0477 0.2461 0.2356, 0.091 0.2461 0.1726, 0.087 0.2461 0.1719, 0.0864 0.2461 0.1822, 0.0863 0.2461 0.1719, 0.0848 0.2461 0.1824, 0.0822 0.2461 0.1724, 0.0833 0.2461 0.1829, 0.0784 0.2461 0.1738, 0.082 0.2461 0.1838, 0.075 0.2461 0.1762, 0.0809 0.2461 0.1851, 0.0723 0.2461 0.1791, 0.0801 0.2461 0.1866, 0.0702 0.2461 0.1829, 0.0692 0.2461 0.1871, 0.0512 0.2461 0.1888, 0.0512 0.2461 0.1882, 0.0457 0.2461 0.1935, 0.0511 0.2461 0.1871, 0.0506 0.2461 0.1859, 0.0499 0.2461 0.1848, 0.0492 0.2461 0.1841, 0.0452 0.2461 0.1934, 0.0481 0.2461 0.1834, 0.0459 0.2461 0.1935, 0.0471 0.2461 0.1934, 0.0482 0.2461 0.1929, 0.0493 0.2461 0.1922, 0.0502 0.2461 0.1913, 0.0509 0.2461 0.1901, 0.0142 0.246 0.2066, 0.0148 0.246 0.2117, 0.0189 0.246 0.2202, 0.0154 0.246 0.2133, 0.0167 0.246 0.217, 0.0201 0.246 0.2219, 0.0246 0.246 0.226, 0.0296 0.246 0.2286, 0.0309 0.246 0.2291, 0.0345 0.246 0.2361, 0.0401 0.246 0.2426, 0.043 0.246 0.2446, 0.0476 0.246 0.2478, 0.0562 0.246 0.2509, 0.0632 0.246 0.2517, 0.0717 0.246 0.2507, 0.0796 0.246 0.2477, 0.0838 0.246 0.2452, 0.0913 0.246 0.2377, 0.0844 0.246 0.2446, 0.0878 0.246 0.2418, 0.0933 0.246 0.238, 0.0952 0.246 0.2381, 0.102 0.246 0.2373, 0.1084 0.246 0.2349, 0.1138 0.246 0.2311, 0.1149 0.246 0.23, 0.1231 0.246 0.2106, 0.1185 0.246 0.2256, 0.1212 0.246 0.2202, 0.1215 0.246 0.2196, 0.1229 0.246 0.2133, 0.123 0.246 0.2129, 0.1223 0.246 0.2039, 0.1199 0.246 0.1975, 0.1161 0.246 0.1919, 0.1108 0.246 0.1874, 0.1047 0.246 0.1843, 0.1025 0.246 0.1836, 0.1017 0.246 0.182, 0.0992 0.246 0.178, 0.1008 0.246 0.18, 0.0983 0.246 0.1768, 0.0949 0.246 0.1743, 0.091 0.246 0.1726, 0.087 0.246 0.1719, 0.0863 0.246 0.1719, 0.0822 0.246 0.1724, 0.0708 0.246 0.182, 0.0784 0.246 0.1738, 0.075 0.246 0.1762, 0.0733 0.246 0.178, 0.0723 0.246 0.1791, 0.0702 0.246 0.1829, 0.0692 0.246 0.1871, 0.0691 0.246 0.1889, 0.0691 0.246 0.1906, 0.0451 0.246 0.2031, 0.0503 0.246 0.2121, 0.0733 0.246 0.2003, 0.0763 0.246 0.2031, 0.0799 0.246 0.2051, 0.084 0.246 0.2061, 0.0861 0.246 0.2062, 0.0901 0.246 0.2058, 0.0939 0.246 0.2044, 0.0974 0.246 0.202, 0.1003 0.246 0.1988, 0.1022 0.246 0.1951, 0.1059 0.246 0.1974, 0.109 0.246 0.2006, 0.111 0.246 0.2041, 0.1122 0.246 0.2083, 0.1123 0.246 0.2109, 0.112 0.246 0.2133, 0.1118 0.246 0.215, 0.1103 0.246 0.2188, 0.1093 0.246 0.2202, 0.1079 0.246 0.2222, 0.1049 0.246 0.2248, 0.1011 0.246 0.2268, 0.0969 0.246 0.2278, 0.0952 0.246 0.2278, 0.0912 0.246 0.2273, 0.0874 0.246 0.2259, 0.0861 0.246 0.2252, 0.0838 0.246 0.2301, 0.0801 0.246 0.2347, 0.0754 0.246 0.2383, 0.0698 0.246 0.2406, 0.0641 0.246 0.2414, 0.0631 0.246 0.2414, 0.0394 0.246 0.2199, 0.0394 0.246 0.2202, 0.0399 0.246 0.2229, 0.0421 0.246 0.2287, 0.0455 0.246 0.2336, 0.0477 0.246 0.2356, 0.0525 0.246 0.2389, 0.0579 0.246 0.2408, 0.038 0.246 0.2199, 0.0348 0.246 0.2195, 0.0318 0.246 0.2183, 0.0291 0.246 0.2165, 0.0272 0.246 0.2142, 0.0267 0.246 0.2133, 0.0256 0.246 0.2113, 0.0248 0.246 0.208, 0.0248 0.246 0.2065, 0.0252 0.246 0.2032, 0.0264 0.246 0.2001, 0.0283 0.246 0.1975, 0.0285 0.246 0.1972, 0.0311 0.246 0.1952, 0.0341 0.246 0.1938, 0.0372 0.246 0.1933, 0.0448 0.246 0.1933, 0.0452 0.246 0.1934, 0.0457 0.246 0.1935, 0.0459 0.246 0.1935, 0.0471 0.246 0.1934, 0.0482 0.246 0.1929, 0.0493 0.246 0.1922, 0.0502 0.246 0.1913, 0.0509 0.246 0.1901, 0.0512 0.246 0.1888, 0.0512 0.246 0.1882, 0.0511 0.246 0.1871, 0.0506 0.246 0.1859, 0.0499 0.246 0.1848, 0.0492 0.246 0.1841, 0.0481 0.246 0.1834, 0.0469 0.246 0.183, 0.0463 0.246 0.1829, 0.0362 0.246 0.1828, 0.031 0.246 0.1838, 0.0257 0.246 0.1862, 0.0212 0.246 0.1898, 0.0206 0.246 0.1904, 0.0175 0.246 0.1946, 0.0152 0.246 0.2, 0.0142 0.246 0.2056, 0.0863 0.246 0.1955, 0.0852 0.246 0.1954, 0.0836 0.246 0.1949, 0.0822 0.246 0.194, 0.081 0.246 0.1928, 0.0802 0.246 0.1914, 0.0798 0.246 0.1899, 0.0797 0.246 0.1882, 0.0801 0.246 0.1866, 0.0809 0.246 0.1851, 0.082 0.246 0.1838, 0.0833 0.246 0.1829, 0.0848 0.246 0.1824, 0.0864 0.246 0.1822, 0.088 0.246 0.1824, 0.0895 0.246 0.183, 0.0909 0.246 0.1839, 0.092 0.246 0.1852, 0.0927 0.246 0.1866, 0.093 0.246 0.1882, 0.093 0.246 0.1899, 0.0925 0.246 0.1915, 0.0916 0.246 0.1929, 0.0908 0.246 0.1938, 0.0894 0.246 0.1947, 0.0879 0.246 0.1953
            ]
        }
        coordIndex [
            0,1,2,-1,3,4,5,-1,6,7,3,-1,8,9,10,-1,10,9,11,-1,7,12,3,-1,3,12,13,-1,3,13,14,-1,15,16,17,-1,18,19,2,-1,2,19,20,-1,2,20,0,-1,13,21,14,-1,14,21,22,-1,14,22,23,-1,23,22,24,-1,25,26,27,-1,27,26,28,-1,27,28,29,-1,29,28,30,-1,29,30,31,-1,31,30,32,-1,31,32,33,-1,33,32,2,-1,33,2,34,-1,35,36,25,-1,25,36,37,-1,25,37,26,-1,15,17,38,-1,38,17,39,-1,38,39,40,-1,40,39,41,-1,40,41,42,-1,9,43,11,-1,11,43,44,-1,11,44,45,-1,45,44,46,-1,45,46,15,-1,15,46,47,-1,15,47,16,-1,48,1,49,-1,49,1,50,-1,49,50,51,-1,52,53,54,-1,42,41,55,-1,55,41,56,-1,55,56,57,-1,58,59,60,-1,60,59,61,-1,60,61,62,-1,62,61,63,-1,62,63,64,-1,65,66,67,-1,67,66,68,-1,67,68,69,-1,69,68,70,-1,69,70,71,-1,71,70,72,-1,71,72,73,-1,73,72,74,-1,73,74,18,-1,18,74,75,-1,18,75,19,-1,6,3,76,-1,76,3,5,-1,76,5,25,-1,25,5,77,-1,25,77,35,-1,64,78,62,-1,62,78,79,-1,62,79,80,-1,80,79,81,-1,80,81,82,-1,82,81,83,-1,82,83,84,-1,84,83,85,-1,84,85,86,-1,86,85,87,-1,86,87,88,-1,88,87,89,-1,88,89,90,-1,90,89,91,-1,54,53,92,-1,92,53,93,-1,92,93,94,-1,94,93,95,-1,94,95,96,-1,96,95,97,-1,96,97,98,-1,98,97,99,-1,98,99,100,-1,100,99,101,-1,100,101,102,-1,102,101,103,-1,102,103,104,-1,104,103,105,-1,104,105,91,-1,91,105,106,-1,91,106,90,-1,10,107,8,-1,8,107,108,-1,8,108,109,-1,109,108,110,-1,109,110,111,-1,111,110,112,-1,111,112,65,-1,65,112,113,-1,65,113,66,-1,48,114,1,-1,1,114,115,-1,1,115,2,-1,2,115,116,-1,2,116,34,-1,56,117,57,-1,57,117,118,-1,57,118,119,-1,119,118,120,-1,119,120,121,-1,121,120,122,-1,121,122,58,-1,58,122,123,-1,58,123,59,-1,50,124,51,-1,51,124,125,-1,51,125,126,-1,126,125,127,-1,126,127,128,-1,128,127,129,-1,128,129,130,-1,130,129,131,-1,130,131,132,-1,132,131,133,-1,132,133,134,-1,134,133,135,-1,134,135,136,-1,136,135,137,-1,136,137,24,-1,24,137,138,-1,24,138,23,-1,139,140,141,-1,141,140,142,-1,142,143,141,-1,141,143,144,-1,141,144,145,-1,54,146,52,-1,52,146,141,-1,52,141,147,-1,147,141,145,-1,141,148,139,-1,139,148,149,-1,139,149,150,-1,150,151,139,-1,139,151,152,-1,139,152,153,-1,90,154,155,-1,156,84,86,-1,90,155,88,-1,88,155,157,-1,88,157,86,-1,86,157,158,-1,86,158,156,-1,156,159,84,-1,84,159,160,-1,84,160,82,-1,82,160,161,-1,82,161,80,-1,80,161,162,-1,80,162,62,-1,62,162,163,-1,62,163,60,-1,60,163,164,-1,60,164,58,-1,58,164,165,-1,58,165,121,-1,165,166,121,-1,121,166,167,-1,121,167,119,-1,119,167,168,-1,119,168,57,-1,57,168,169,-1,57,169,55,-1,55,169,170,-1,55,170,42,-1,42,170,171,-1,42,171,40,-1,172,15,38,-1,40,171,173,-1,40,173,38,-1,38,173,174,-1,38,174,172,-1,15,172,175,-1,15,175,45,-1,45,175,176,-1,45,176,11,-1,11,176,177,-1,11,177,10,-1,10,177,178,-1,10,178,107,-1,107,178,179,-1,107,179,108,-1,108,179,180,-1,108,180,110,-1,181,68,66,-1,110,180,182,-1,110,182,112,-1,112,182,183,-1,112,183,113,-1,183,184,113,-1,113,184,185,-1,113,185,66,-1,66,185,186,-1,66,186,181,-1,68,181,187,-1,68,187,70,-1,70,187,188,-1,70,188,72,-1,72,188,189,-1,72,189,74,-1,74,189,190,-1,74,190,75,-1,75,190,191,-1,75,191,19,-1,19,191,192,-1,19,192,20,-1,20,192,193,-1,194,1,0,-1,20,193,0,-1,0,193,195,-1,0,195,194,-1,194,196,1,-1,1,196,197,-1,1,197,50,-1,50,197,198,-1,50,198,124,-1,124,198,199,-1,124,199,125,-1,125,199,200,-1,125,200,127,-1,127,200,201,-1,202,137,135,-1,127,201,129,-1,129,201,203,-1,129,203,131,-1,131,203,204,-1,131,204,133,-1,133,204,205,-1,133,205,135,-1,135,205,206,-1,135,206,202,-1,202,207,137,-1,137,207,208,-1,137,208,138,-1,138,208,209,-1,138,209,23,-1,14,23,210,-1,210,23,209,-1,3,14,211,-1,211,14,210,-1,4,3,212,-1,212,3,211,-1,5,4,213,-1,213,4,212,-1,5,213,214,-1,5,214,77,-1,77,214,215,-1,77,215,35,-1,35,215,216,-1,35,216,36,-1,36,216,217,-1,36,217,37,-1,37,217,218,-1,37,218,26,-1,26,218,219,-1,26,219,28,-1,28,219,220,-1,28,220,30,-1,30,220,221,-1,30,221,32,-1,32,221,222,-1,32,222,2,-1,2,222,223,-1,2,223,18,-1,18,223,224,-1,18,224,73,-1,73,224,225,-1,73,225,71,-1,71,225,226,-1,71,226,69,-1,69,226,227,-1,69,227,67,-1,65,67,228,-1,228,67,227,-1,228,229,65,-1,65,229,230,-1,65,230,111,-1,111,230,231,-1,111,231,109,-1,231,232,109,-1,109,232,233,-1,109,233,8,-1,8,233,234,-1,8,234,9,-1,9,234,235,-1,9,235,43,-1,43,235,236,-1,43,236,44,-1,44,236,237,-1,44,237,46,-1,46,237,238,-1,46,238,47,-1,47,238,239,-1,47,239,16,-1,16,239,240,-1,16,240,17,-1,17,240,241,-1,17,241,39,-1,39,241,242,-1,39,242,41,-1,41,242,243,-1,41,243,56,-1,56,243,244,-1,56,244,117,-1,117,244,245,-1,117,245,118,-1,246,64,247,-1,247,64,63,-1,247,63,248,-1,248,63,61,-1,248,61,249,-1,249,61,59,-1,249,59,250,-1,250,59,123,-1,250,123,251,-1,251,123,122,-1,251,122,252,-1,252,122,120,-1,252,120,253,-1,253,120,118,-1,253,118,245,-1,78,64,254,-1,254,64,246,-1,78,254,255,-1,78,255,79,-1,79,255,256,-1,79,256,81,-1,81,256,257,-1,81,257,83,-1,83,257,258,-1,83,258,85,-1,85,258,259,-1,85,259,87,-1,259,260,87,-1,87,260,261,-1,87,261,89,-1,89,261,262,-1,89,262,91,-1,91,262,263,-1,91,263,104,-1,104,263,264,-1,104,264,102,-1,102,264,265,-1,102,265,100,-1,100,265,266,-1,100,266,98,-1,98,266,267,-1,98,267,96,-1,96,267,268,-1,96,268,94,-1,94,268,269,-1,94,269,92,-1,54,92,270,-1,270,92,269,-1,54,270,271,-1,54,271,146,-1,146,271,272,-1,146,272,141,-1,141,272,273,-1,141,273,148,-1,148,273,274,-1,148,274,149,-1,149,274,275,-1,149,275,150,-1,150,275,276,-1,150,276,151,-1,151,276,277,-1,151,277,152,-1,152,277,278,-1,152,278,153,-1,153,278,279,-1,153,279,139,-1,139,279,280,-1,139,280,140,-1,140,280,281,-1,140,281,142,-1,142,281,282,-1,142,282,143,-1,143,282,283,-1,143,283,144,-1,144,283,284,-1,144,284,145,-1,145,284,285,-1,145,285,147,-1,147,285,286,-1,147,286,52,-1,52,286,287,-1,52,287,53,-1,93,53,288,-1,288,53,287,-1,93,288,289,-1,93,289,95,-1,95,289,290,-1,95,290,97,-1,97,290,291,-1,97,291,99,-1,99,291,292,-1,99,292,101,-1,101,292,293,-1,101,293,103,-1,103,293,294,-1,103,294,105,-1,105,294,295,-1,105,295,106,-1,106,295,154,-1,106,154,90,-1,76,296,297,-1,76,297,6,-1,6,297,298,-1,6,298,7,-1,7,298,299,-1,7,299,12,-1,12,299,300,-1,12,300,13,-1,13,300,301,-1,13,301,21,-1,21,301,302,-1,21,302,22,-1,22,302,303,-1,22,303,24,-1,24,303,304,-1,24,304,136,-1,136,304,305,-1,136,305,134,-1,134,305,306,-1,134,306,132,-1,132,306,307,-1,132,307,130,-1,130,307,308,-1,130,308,128,-1,128,308,309,-1,128,309,126,-1,126,309,310,-1,126,310,51,-1,51,310,311,-1,51,311,49,-1,49,311,312,-1,49,312,48,-1,48,312,313,-1,48,313,114,-1,114,313,314,-1,114,314,115,-1,115,314,315,-1,115,315,116,-1,116,315,316,-1,116,316,34,-1,34,316,317,-1,34,317,33,-1,33,317,318,-1,33,318,31,-1,31,318,319,-1,31,319,29,-1,29,319,320,-1,29,320,27,-1,27,320,321,-1,27,321,25,-1,25,321,296,-1,25,296,76,-1,
        ]
    }
}
Shape{
    appearance Appearance {
        material  Material {
            diffuseColor 1.0 1.0 1.0
            specularColor 0.5019607843137255 0.5019607843137255 0.5019607843137255
            ambientIntensity 1.0
            transparency 0.0
            shininess 0.5
        }
    }
    geometry IndexedFaceSet {
        ccw TRUE
        solid FALSE
        coord DEF co Coordinate {
            point [
                0.0864 0.246 0.1822, 0.0908 0.246 0.1938, 0.0916 0.246 0.1929, 0.0863 0.246 0.1955, 0.0852 0.246 0.1954, 0.0848 0.246 0.1824, 0.0879 0.246 0.1953, 0.0894 0.246 0.1947, 0.082 0.246 0.1838, 0.081 0.246 0.1928, 0.0822 0.246 0.194, 0.0927 0.246 0.1866, 0.092 0.246 0.1852, 0.0909 0.246 0.1839, 0.0833 0.246 0.1829, 0.0836 0.246 0.1949, 0.0925 0.246 0.1915, 0.093 0.246 0.1899, 0.093 0.246 0.1882, 0.0895 0.246 0.183, 0.088 0.246 0.1824, 0.0801 0.246 0.1866, 0.0797 0.246 0.1882, 0.0809 0.246 0.1851, 0.0798 0.246 0.1899, 0.0802 0.246 0.1914
            ]
        }
        coordIndex [
            0,1,2,-1,3,0,4,-1,4,0,5,-1,3,6,0,-1,0,6,7,-1,0,7,1,-1,8,9,10,-1,11,12,2,-1,2,12,13,-1,5,14,4,-1,4,14,8,-1,4,8,15,-1,15,8,10,-1,16,17,2,-1,2,17,18,-1,2,18,11,-1,13,19,2,-1,2,19,20,-1,2,20,0,-1,21,22,23,-1,23,22,24,-1,23,24,8,-1,8,24,25,-1,8,25,9,-1,
        ]
    }
}